<svg id="Capa_1" enable-background="new 0 0 512.002 512.002" viewBox="0 0 512.002 512.002" xmlns="http://www.w3.org/2000/svg"><g><g clip-rule="evenodd" fill-rule="evenodd"><path d="m490.512 101.18c-162.046-.001-146.176-79.64-297.216-79.639l-62.37 232.769c151.04-.001 135.17 79.638 297.215 79.639z" fill="#bc9af4"/><path d="m295.088 39.418c-24.868-10.384-55.478-17.877-101.792-17.877l-62.37 232.769c97.659 0 125.549 33.29 176.859 56.823-29.9-40.734-47.573-91.002-47.573-145.405.001-46.183 12.739-89.387 34.876-126.31z" fill="#6864f7"/><path d="m124.449 278.485 68.847-256.944-43.065-11.539-128.739 480.46 43.065 11.54z" fill="#fdcb50"/><path d="m239.891 85.42 15.592-58.192c-17.274-3.559-37.501-5.686-62.187-5.686l-15.592 58.192c24.685-.001 44.912 2.126 62.187 5.686z" fill="#d2dcfd"/><path d="m298.016 106.264c-8.457-4.347-17.358-8.454-27.228-12.081-24.35-3.258-37.836 48.395-10.317 60.21 7.807 3.106 15.029 6.504 21.953 10.063z" fill="#fff"/><path d="m208.706 201.803 15.592-58.192c-17.274-3.559-37.502-5.687-62.187-5.686l-15.593 58.192c24.686 0 44.913 2.127 62.188 5.686z" fill="#d2dcfd"/><path d="m266.831 222.648c-16.421-8.44-34.515-15.98-58.126-20.844l-15.593 58.192c23.611 4.865 41.705 12.405 58.125 20.845z" fill="#d2dcfd"/><g fill="#fff"><path d="m282.424 164.456-15.593 58.192c18.833 9.679 35.465 20.542 55.697 29.909l15.592-58.192c-20.231-9.367-36.864-20.23-55.696-29.909z"/><path d="m298.016 106.264c18.833 9.679 35.465 20.542 55.697 29.909l15.592-58.192c-20.231-9.367-36.864-20.23-55.697-29.909z"/><path d="m353.713 136.173-15.593 58.192c16.27 7.533 34.866 14.098 58.806 18.304l15.593-58.192c-23.94-4.206-42.536-10.771-58.806-18.304z"/><path d="m381.334 270.861c-23.94-4.206-42.537-10.771-58.806-18.304l-15.593 58.192c16.27 7.533 34.866 14.098 58.806 18.304z"/><path d="m396.927 212.669-15.592 58.192c17.538 3.081 37.942 4.895 62.399 4.895l15.593-58.192c-24.458 0-44.862-1.814-62.4-4.895z"/><path d="m412.519 154.477c17.537 3.081 37.942 4.895 62.399 4.895l15.593-58.192c-24.458 0-44.862-1.814-62.4-4.895z"/></g><path d="m260.469 154.392c.946-20.853 4.488-41.029 10.31-60.213-9.292-3.414-19.442-6.401-30.889-8.76l-15.592 58.193c13.655 2.813 25.464 6.521 36.171 10.78z" fill="#d2dcfd"/></g><path d="m498.446 95.093c-1.893-2.467-4.824-3.913-7.934-3.913-79.812 0-113.739-19.221-149.659-39.57-34.572-19.586-70.314-39.833-146.232-40.066l-41.801-11.2c-5.336-1.429-10.818 1.737-12.248 7.071l-128.739 480.459c-1.43 5.335 1.736 10.818 7.071 12.248l43.065 11.54c.852.228 1.722.341 2.588.341 1.741 0 3.467-.455 5-1.34 2.297-1.326 3.973-3.51 4.659-6.072l64.364-240.208c66.249 1.258 97.246 18.817 130.044 37.398 36.595 20.731 74.436 42.168 159.519 42.168 4.525 0 8.488-3.04 9.659-7.412l62.37-232.768c.804-3.004.166-6.21-1.726-8.676zm-440.96 394.661-23.746-6.363 123.562-461.141 23.746 6.363zm362.999-165.866c-74.365-1.194-107.253-19.824-142.003-39.51-32.748-18.552-66.574-37.715-134.578-39.867l57.046-212.898c66.242 1.254 97.267 18.83 130.045 37.398 34.678 19.646 70.474 39.925 146.532 41.996z" fill="#052a75"/></g><g/><g/><g/><g/><g/><g/><g/><g/><g/><g/><g/><g/><g/><g/><g/></svg>