<svg width="18" height="18" viewBox="0 0 18 18" fill="none" xmlns="http://www.w3.org/2000/svg">
<path d="M15.25 0H2.75C1.234 0 0 1.234 0 2.75V15.25C0 16.766 1.234 18 2.75 18H15.25C16.766 18 18 16.766 18 15.25V2.75C18 1.234 16.766 0 15.25 0ZM14.7805 6.2805L7.7805 13.2805C7.634 13.427 7.442 13.5 7.25 13.5C7.058 13.5 6.866 13.427 6.7195 13.2805L3.7195 10.2805C3.4265 9.9875 3.4265 9.513 3.7195 9.22C4.0125 8.927 4.487 8.927 4.78 9.22L7.2495 11.6895L13.719 5.22C14.012 4.927 14.4865 4.927 14.7795 5.22C15.0725 5.513 15.073 5.9875 14.7805 6.2805Z" fill="black"/>
</svg>
