<?xml version="1.0" encoding="iso-8859-1"?>
<!-- Generator: Adobe Illustrator 22.0.1, SVG Export Plug-In . SVG Version: 6.00 Build 0)  -->
<svg version="1.1" id="_x35_0" xmlns="http://www.w3.org/2000/svg" xmlns:xlink="http://www.w3.org/1999/xlink" x="0px" y="0px"
	 viewBox="0 0 512 512" style="enable-background:new 0 0 512 512;" xml:space="preserve">
<g>
	<circle style="fill:#EFB733;" cx="256" cy="256" r="256"/>
	<g>
		<g>
			<path style="fill:#57409B;" d="M382.6,212.38v178.68c0,12.13-9.84,21.98-21.98,21.98H151.38c-12.14,0-21.98-9.85-21.98-21.98
				V212.38c0-12.13,9.84-21.97,21.98-21.97h209.24C372.76,190.41,382.6,200.25,382.6,212.38z"/>
			<path style="fill:#6052A3;" d="M382.6,212.38v178.68c0,12.13-9.84,21.98-21.98,21.98H256V190.41h104.62
				C372.76,190.41,382.6,200.25,382.6,212.38z"/>
			<path style="fill:#7063CE;" d="M382.6,212.38v178.68c0,12.13-9.84,21.98-21.98,21.98h-23.38V190.41h23.38
				C372.76,190.41,382.6,200.25,382.6,212.38z"/>
			<path style="fill:#6052A3;" d="M174.76,190.41v222.63h-23.38c-12.14,0-21.98-9.85-21.98-21.98V212.38
				c0-12.13,9.84-21.97,21.98-21.97H174.76z"/>
		</g>
		<g>
			<g>
				<path style="fill:#6052A3;" d="M337.241,200.899v9.665c-2.215-2.48-3.582-3.794-6.37-3.794c-2.872,0-4.239,1.388-6.581,4.048
					c-2.448,2.766-5.797,6.55-12.156,6.55c-6.348,0-9.697-3.784-12.146-6.55c-2.342-2.66-3.709-4.048-6.581-4.048
					s-4.239,1.388-6.581,4.048c-2.448,2.766-5.797,6.55-12.146,6.55c-6.359,0-9.697-3.784-12.146-6.55
					c-2.342-2.65-3.699-4.038-6.571-4.048c-0.011,0-0.011,0-0.021,0c-2.872,0-4.229,1.388-6.581,4.048
					c-2.438,2.766-5.787,6.55-12.146,6.55c-6.348,0-9.697-3.784-12.146-6.55c-2.342-2.66-3.709-4.048-6.581-4.048
					s-4.239,1.388-6.581,4.048c-2.448,2.766-5.787,6.55-12.146,6.55s-9.698-3.784-12.146-6.55c-2.353-2.66-3.709-4.048-6.582-4.048
					c-2.745,0-4.123,1.282-6.274,3.709v-9.623c1.706-0.901,3.752-1.505,6.274-1.505c6.348,0,9.698,3.794,12.146,6.56
					c2.342,2.66,3.709,4.038,6.582,4.038c2.872,0,4.239-1.378,6.581-4.038c2.448-2.766,5.787-6.56,12.146-6.56
					s9.697,3.794,12.146,6.56c2.353,2.66,3.709,4.038,6.581,4.038c2.883,0,4.239-1.378,6.592-4.038
					c2.438-2.766,5.787-6.56,12.135-6.56c0.011,0,0.011,0,0.021,0c6.348,0.01,9.687,3.794,12.124,6.56
					c2.353,2.66,3.709,4.038,6.592,4.038c2.872,0,4.229-1.378,6.581-4.038c2.448-2.766,5.787-6.56,12.146-6.56
					s9.697,3.794,12.146,6.56c2.353,2.66,3.709,4.038,6.582,4.038c2.883,0,4.239-1.378,6.592-4.038
					c2.448-2.766,5.787-6.56,12.146-6.56C333.436,199.352,335.513,199.977,337.241,200.899z"/>
				<path style="fill:#6052A3;" d="M337.241,258.13v9.665c-2.215-2.48-3.582-3.794-6.37-3.794c-2.872,0-4.239,1.388-6.581,4.048
					c-2.448,2.766-5.797,6.55-12.156,6.55c-6.348,0-9.697-3.784-12.146-6.55c-2.342-2.66-3.709-4.048-6.581-4.048
					s-4.239,1.388-6.581,4.048c-2.448,2.766-5.797,6.55-12.146,6.55c-6.359,0-9.697-3.784-12.146-6.55
					c-2.342-2.65-3.699-4.038-6.571-4.048c-0.011,0-0.011,0-0.021,0c-2.872,0-4.229,1.388-6.581,4.048
					c-2.438,2.766-5.787,6.55-12.146,6.55c-6.348,0-9.697-3.784-12.146-6.55c-2.342-2.66-3.709-4.048-6.581-4.048
					s-4.239,1.388-6.581,4.048c-2.448,2.766-5.787,6.55-12.146,6.55s-9.698-3.784-12.146-6.55c-2.353-2.66-3.709-4.048-6.582-4.048
					c-2.745,0-4.123,1.282-6.274,3.709v-9.623c1.706-0.901,3.752-1.505,6.274-1.505c6.348,0,9.698,3.794,12.146,6.56
					c2.342,2.66,3.709,4.038,6.582,4.038c2.872,0,4.239-1.378,6.581-4.038c2.448-2.766,5.787-6.56,12.146-6.56
					s9.697,3.794,12.146,6.56c2.353,2.66,3.709,4.038,6.581,4.038c2.883,0,4.239-1.378,6.592-4.038
					c2.438-2.766,5.787-6.56,12.135-6.56c0.011,0,0.011,0,0.021,0c6.348,0.01,9.687,3.794,12.124,6.56
					c2.353,2.66,3.709,4.038,6.592,4.038c2.872,0,4.229-1.378,6.581-4.038c2.448-2.766,5.787-6.56,12.146-6.56
					s9.697,3.794,12.146,6.56c2.353,2.66,3.709,4.038,6.582,4.038c2.883,0,4.239-1.378,6.592-4.038
					c2.448-2.766,5.787-6.56,12.146-6.56C333.436,256.583,335.513,257.208,337.241,258.13z"/>
				<path style="fill:#6052A3;" d="M337.241,229.515v9.665c-2.215-2.48-3.582-3.794-6.37-3.794c-2.872,0-4.239,1.388-6.581,4.048
					c-2.448,2.766-5.797,6.55-12.156,6.55c-6.348,0-9.697-3.784-12.146-6.55c-2.342-2.66-3.709-4.048-6.581-4.048
					s-4.239,1.388-6.581,4.048c-2.448,2.766-5.797,6.55-12.146,6.55c-6.359,0-9.697-3.784-12.146-6.55
					c-2.342-2.65-3.699-4.038-6.571-4.048c-0.011,0-0.011,0-0.021,0c-2.872,0-4.229,1.388-6.581,4.048
					c-2.438,2.766-5.787,6.55-12.146,6.55c-6.348,0-9.697-3.784-12.146-6.55c-2.342-2.66-3.709-4.048-6.581-4.048
					s-4.239,1.388-6.581,4.048c-2.448,2.766-5.787,6.55-12.146,6.55s-9.698-3.784-12.146-6.55c-2.353-2.66-3.709-4.048-6.582-4.048
					c-2.745,0-4.123,1.282-6.274,3.709v-9.623c1.706-0.901,3.752-1.505,6.274-1.505c6.348,0,9.698,3.794,12.146,6.56
					c2.342,2.66,3.709,4.038,6.582,4.038c2.872,0,4.239-1.378,6.581-4.038c2.448-2.766,5.787-6.56,12.146-6.56
					s9.697,3.794,12.146,6.56c2.353,2.66,3.709,4.038,6.581,4.038c2.883,0,4.239-1.378,6.592-4.038
					c2.438-2.766,5.787-6.56,12.135-6.56c0.011,0,0.011,0,0.021,0c6.348,0.01,9.687,3.794,12.124,6.56
					c2.353,2.66,3.709,4.038,6.592,4.038c2.872,0,4.229-1.378,6.581-4.038c2.448-2.766,5.787-6.56,12.146-6.56
					s9.697,3.794,12.146,6.56c2.353,2.66,3.709,4.038,6.582,4.038c2.883,0,4.239-1.378,6.592-4.038
					c2.448-2.766,5.787-6.56,12.146-6.56C333.436,227.967,335.513,228.592,337.241,229.515z"/>
				<path style="fill:#7063CE;" d="M318.726,205.912c-2.353,2.66-3.709,4.038-6.592,4.038c-2.872,0-4.229-1.378-6.582-4.038
					c-2.448-2.766-5.787-6.56-12.146-6.56s-9.697,3.794-12.146,6.56c-2.353,2.66-3.709,4.038-6.581,4.038
					c-2.883,0-4.239-1.378-6.592-4.038c-2.438-2.766-5.776-6.55-12.124-6.56v7.419c2.872,0.01,4.229,1.399,6.571,4.048
					c2.448,2.766,5.787,6.55,12.146,6.55c6.348,0,9.697-3.784,12.146-6.55c2.342-2.66,3.709-4.048,6.581-4.048
					s4.239,1.388,6.581,4.048c2.448,2.766,5.797,6.55,12.146,6.55c6.359,0,9.708-3.784,12.156-6.55
					c2.342-2.66,3.709-4.048,6.581-4.048c2.787,0,4.154,1.314,6.37,3.794v-9.665c-1.728-0.922-3.805-1.547-6.37-1.547
					C324.512,199.352,321.174,203.146,318.726,205.912z"/>
				<path style="fill:#7063CE;" d="M318.726,234.528c-2.353,2.66-3.709,4.038-6.592,4.038c-2.872,0-4.229-1.378-6.582-4.038
					c-2.448-2.766-5.787-6.56-12.146-6.56s-9.697,3.794-12.146,6.56c-2.353,2.66-3.709,4.038-6.581,4.038
					c-2.883,0-4.239-1.378-6.592-4.038c-2.438-2.766-5.776-6.55-12.124-6.56v7.419c2.872,0.01,4.229,1.399,6.571,4.048
					c2.448,2.766,5.787,6.55,12.146,6.55c6.348,0,9.697-3.784,12.146-6.55c2.342-2.66,3.709-4.048,6.581-4.048
					s4.239,1.388,6.581,4.048c2.448,2.766,5.797,6.55,12.146,6.55c6.359,0,9.708-3.784,12.156-6.55
					c2.342-2.66,3.709-4.048,6.581-4.048c2.787,0,4.154,1.314,6.37,3.794v-9.665c-1.728-0.922-3.805-1.547-6.37-1.547
					C324.512,227.967,321.174,231.761,318.726,234.528z"/>
				<path style="fill:#7063CE;" d="M318.726,263.143c-2.353,2.66-3.709,4.038-6.592,4.038c-2.872,0-4.229-1.378-6.582-4.038
					c-2.448-2.766-5.787-6.56-12.146-6.56s-9.697,3.794-12.146,6.56c-2.353,2.66-3.709,4.038-6.581,4.038
					c-2.883,0-4.239-1.378-6.592-4.038c-2.438-2.766-5.776-6.55-12.124-6.56v7.419c2.872,0.01,4.229,1.399,6.571,4.048
					c2.448,2.766,5.787,6.55,12.146,6.55c6.348,0,9.697-3.784,12.146-6.55c2.342-2.66,3.709-4.048,6.581-4.048
					s4.239,1.388,6.581,4.048c2.448,2.766,5.797,6.55,12.146,6.55c6.359,0,9.708-3.784,12.156-6.55
					c2.342-2.66,3.709-4.048,6.581-4.048c2.787,0,4.154,1.314,6.37,3.794v-9.665c-1.728-0.922-3.805-1.547-6.37-1.547
					C324.512,256.583,321.174,260.377,318.726,263.143z"/>
			</g>
			<g>
				<path style="fill:#6052A3;" d="M337.241,330.398v9.665c-2.215-2.48-3.582-3.794-6.37-3.794c-2.872,0-4.239,1.388-6.581,4.048
					c-2.448,2.766-5.797,6.55-12.156,6.55c-6.348,0-9.697-3.784-12.146-6.55c-2.342-2.66-3.709-4.048-6.581-4.048
					s-4.239,1.388-6.581,4.048c-2.448,2.766-5.797,6.55-12.146,6.55c-6.359,0-9.697-3.784-12.146-6.55
					c-2.342-2.65-3.699-4.038-6.571-4.048c-0.011,0-0.011,0-0.021,0c-2.872,0-4.229,1.388-6.581,4.048
					c-2.438,2.766-5.787,6.55-12.146,6.55c-6.348,0-9.697-3.784-12.146-6.55c-2.342-2.66-3.709-4.048-6.581-4.048
					s-4.239,1.388-6.581,4.048c-2.448,2.766-5.787,6.55-12.146,6.55s-9.698-3.784-12.146-6.55c-2.353-2.66-3.709-4.048-6.582-4.048
					c-2.745,0-4.123,1.282-6.274,3.709v-9.623c1.706-0.901,3.752-1.505,6.274-1.505c6.348,0,9.698,3.794,12.146,6.56
					c2.342,2.66,3.709,4.038,6.582,4.038c2.872,0,4.239-1.378,6.581-4.038c2.448-2.766,5.787-6.56,12.146-6.56
					s9.697,3.794,12.146,6.56c2.353,2.66,3.709,4.038,6.581,4.038c2.883,0,4.239-1.378,6.592-4.038
					c2.438-2.766,5.787-6.56,12.135-6.56c0.011,0,0.011,0,0.021,0c6.348,0.01,9.687,3.794,12.124,6.56
					c2.353,2.66,3.709,4.038,6.592,4.038c2.872,0,4.229-1.378,6.581-4.038c2.448-2.766,5.787-6.56,12.146-6.56
					s9.697,3.794,12.146,6.56c2.353,2.66,3.709,4.038,6.582,4.038c2.883,0,4.239-1.378,6.592-4.038
					c2.448-2.766,5.787-6.56,12.146-6.56C333.436,328.85,335.513,329.475,337.241,330.398z"/>
				<path style="fill:#6052A3;" d="M337.241,387.628v9.665c-2.215-2.48-3.582-3.794-6.37-3.794c-2.872,0-4.239,1.388-6.581,4.048
					c-2.448,2.766-5.797,6.55-12.156,6.55c-6.348,0-9.697-3.784-12.146-6.55c-2.342-2.66-3.709-4.048-6.581-4.048
					s-4.239,1.388-6.581,4.048c-2.448,2.766-5.797,6.55-12.146,6.55c-6.359,0-9.697-3.784-12.146-6.55
					c-2.342-2.65-3.699-4.038-6.571-4.048c-0.011,0-0.011,0-0.021,0c-2.872,0-4.229,1.388-6.581,4.048
					c-2.438,2.766-5.787,6.55-12.146,6.55c-6.348,0-9.697-3.784-12.146-6.55c-2.342-2.66-3.709-4.048-6.581-4.048
					s-4.239,1.388-6.581,4.048c-2.448,2.766-5.787,6.55-12.146,6.55s-9.698-3.784-12.146-6.55c-2.353-2.66-3.709-4.048-6.582-4.048
					c-2.745,0-4.123,1.282-6.274,3.709v-9.623c1.706-0.901,3.752-1.505,6.274-1.505c6.348,0,9.698,3.794,12.146,6.56
					c2.342,2.66,3.709,4.038,6.582,4.038c2.872,0,4.239-1.378,6.581-4.038c2.448-2.766,5.787-6.56,12.146-6.56
					s9.697,3.794,12.146,6.56c2.353,2.66,3.709,4.038,6.581,4.038c2.883,0,4.239-1.378,6.592-4.038
					c2.438-2.766,5.787-6.56,12.135-6.56c0.011,0,0.011,0,0.021,0c6.348,0.01,9.687,3.794,12.124,6.56
					c2.353,2.66,3.709,4.038,6.592,4.038c2.872,0,4.229-1.378,6.581-4.038c2.448-2.766,5.787-6.56,12.146-6.56
					s9.697,3.794,12.146,6.56c2.353,2.66,3.709,4.038,6.582,4.038c2.883,0,4.239-1.378,6.592-4.038
					c2.448-2.766,5.787-6.56,12.146-6.56C333.436,386.081,335.513,386.706,337.241,387.628z"/>
				<path style="fill:#6052A3;" d="M337.241,359.013v9.665c-2.215-2.48-3.582-3.794-6.37-3.794c-2.872,0-4.239,1.388-6.581,4.048
					c-2.448,2.766-5.797,6.55-12.156,6.55c-6.348,0-9.697-3.784-12.146-6.55c-2.342-2.66-3.709-4.048-6.581-4.048
					s-4.239,1.388-6.581,4.048c-2.448,2.766-5.797,6.55-12.146,6.55c-6.359,0-9.697-3.784-12.146-6.55
					c-2.342-2.65-3.699-4.038-6.571-4.048c-0.011,0-0.011,0-0.021,0c-2.872,0-4.229,1.388-6.581,4.048
					c-2.438,2.766-5.787,6.55-12.146,6.55c-6.348,0-9.697-3.784-12.146-6.55c-2.342-2.66-3.709-4.048-6.581-4.048
					s-4.239,1.388-6.581,4.048c-2.448,2.766-5.787,6.55-12.146,6.55s-9.698-3.784-12.146-6.55c-2.353-2.66-3.709-4.048-6.582-4.048
					c-2.745,0-4.123,1.282-6.274,3.709v-9.623c1.706-0.901,3.752-1.505,6.274-1.505c6.348,0,9.698,3.794,12.146,6.56
					c2.342,2.66,3.709,4.038,6.582,4.038c2.872,0,4.239-1.378,6.581-4.038c2.448-2.766,5.787-6.56,12.146-6.56
					s9.697,3.794,12.146,6.56c2.353,2.66,3.709,4.038,6.581,4.038c2.883,0,4.239-1.378,6.592-4.038
					c2.438-2.766,5.787-6.56,12.135-6.56c0.011,0,0.011,0,0.021,0c6.348,0.01,9.687,3.794,12.124,6.56
					c2.353,2.66,3.709,4.038,6.592,4.038c2.872,0,4.229-1.378,6.581-4.038c2.448-2.766,5.787-6.56,12.146-6.56
					s9.697,3.794,12.146,6.56c2.353,2.66,3.709,4.038,6.582,4.038c2.883,0,4.239-1.378,6.592-4.038
					c2.448-2.766,5.787-6.56,12.146-6.56C333.436,357.466,335.513,358.091,337.241,359.013z"/>
				<path style="fill:#7063CE;" d="M318.726,335.411c-2.353,2.66-3.709,4.038-6.592,4.038c-2.872,0-4.229-1.378-6.582-4.038
					c-2.448-2.766-5.787-6.56-12.146-6.56s-9.697,3.794-12.146,6.56c-2.353,2.66-3.709,4.038-6.581,4.038
					c-2.883,0-4.239-1.378-6.592-4.038c-2.438-2.766-5.776-6.55-12.124-6.56v7.419c2.872,0.01,4.229,1.399,6.571,4.048
					c2.448,2.766,5.787,6.55,12.146,6.55c6.348,0,9.697-3.784,12.146-6.55c2.342-2.66,3.709-4.048,6.581-4.048
					s4.239,1.388,6.581,4.048c2.448,2.766,5.797,6.55,12.146,6.55c6.359,0,9.708-3.784,12.156-6.55
					c2.342-2.66,3.709-4.048,6.581-4.048c2.787,0,4.154,1.314,6.37,3.794v-9.665c-1.728-0.922-3.805-1.547-6.37-1.547
					C324.512,328.85,321.174,332.644,318.726,335.411z"/>
				<path style="fill:#7063CE;" d="M318.726,364.026c-2.353,2.66-3.709,4.038-6.592,4.038c-2.872,0-4.229-1.378-6.582-4.038
					c-2.448-2.766-5.787-6.56-12.146-6.56s-9.697,3.794-12.146,6.56c-2.353,2.66-3.709,4.038-6.581,4.038
					c-2.883,0-4.239-1.378-6.592-4.038c-2.438-2.766-5.776-6.55-12.124-6.56v7.419c2.872,0.01,4.229,1.399,6.571,4.048
					c2.448,2.766,5.787,6.55,12.146,6.55c6.348,0,9.697-3.784,12.146-6.55c2.342-2.66,3.709-4.048,6.581-4.048
					s4.239,1.388,6.581,4.048c2.448,2.766,5.797,6.55,12.146,6.55c6.359,0,9.708-3.784,12.156-6.55
					c2.342-2.66,3.709-4.048,6.581-4.048c2.787,0,4.154,1.314,6.37,3.794v-9.665c-1.728-0.922-3.805-1.547-6.37-1.547
					C324.512,357.466,321.174,361.26,318.726,364.026z"/>
				<path style="fill:#7063CE;" d="M318.726,392.641c-2.353,2.66-3.709,4.038-6.592,4.038c-2.872,0-4.229-1.378-6.582-4.038
					c-2.448-2.766-5.787-6.56-12.146-6.56s-9.697,3.794-12.146,6.56c-2.353,2.66-3.709,4.038-6.581,4.038
					c-2.883,0-4.239-1.378-6.592-4.038c-2.438-2.766-5.776-6.55-12.124-6.56v7.419c2.872,0.01,4.229,1.399,6.571,4.048
					c2.448,2.766,5.787,6.55,12.146,6.55c6.348,0,9.697-3.784,12.146-6.55c2.342-2.66,3.709-4.048,6.581-4.048
					s4.239,1.388,6.581,4.048c2.448,2.766,5.797,6.55,12.146,6.55c6.359,0,9.708-3.784,12.156-6.55
					c2.342-2.66,3.709-4.048,6.581-4.048c2.787,0,4.154,1.314,6.37,3.794v-9.665c-1.728-0.922-3.805-1.547-6.37-1.547
					C324.512,386.081,321.174,389.875,318.726,392.641z"/>
			</g>
		</g>
		<g>
			<g>
				<rect x="237.817" y="190.41" style="fill:#4FCAE8;" width="36.366" height="222.63"/>
				<rect x="255.947" y="190.41" style="fill:#CDE6F6;" width="18.236" height="222.63"/>
				
					<rect x="165.425" y="247.517" transform="matrix(6.123234e-17 -1 1 6.123234e-17 -118.1166 485.3334)" style="fill:#22A8B9;" width="36.366" height="108.417"/>
				
					<rect x="310.208" y="247.517" transform="matrix(6.123234e-17 -1 1 6.123234e-17 26.6666 630.1166)" style="fill:#4FCAE8;" width="36.366" height="108.417"/>
				<rect x="274.183" y="283.542" style="fill:#CDE6F6;" width="108.417" height="18.183"/>
				<rect x="129.4" y="283.542" style="fill:#4FCAE8;" width="108.417" height="18.183"/>
			</g>
			<g>
				<g>
					<path style="fill:#4FCAE8;" d="M421.12,172.16c-4.86,10.62-14.73,18.25-30.5,18.25c-51.86,0-104.67,0-104.67,0
						c0-42.16,32.24-67.78,67.05-77.76c11.2-3.22,22.68-4.81,33.43-4.81C417.16,107.84,432.27,147.84,421.12,172.16z"/>
					<path style="fill:#CDE6F6;" d="M421.12,172.16c-33.12-3.81-60.06-27.89-68.12-59.51c11.2-3.22,22.68-4.81,33.43-4.81
						C417.16,107.84,432.27,147.84,421.12,172.16z"/>
					<path style="fill:#22A8B9;" d="M304.183,190.41c0-35.943,26.777-53.255,62.049-53.255s44.783,53.255,3.345,53.255
						S304.183,190.41,304.183,190.41z"/>
				</g>
				<g>
					<path style="fill:#22A8B9;" d="M285.95,169.46v20.95h-60v-20.95c0-1.88,0.25-3.69,0.73-5.41c2.37-8.61,10.24-14.93,19.6-14.93
						h19.33c9.36,0,17.24,6.32,19.61,14.93C285.7,165.77,285.95,167.58,285.95,169.46z"/>
					<path style="fill:#4FCAE8;" d="M285.22,164.05c-2.37,8.61-10.25,14.94-19.61,14.94h-19.33c-9.36,0-17.24-6.33-19.6-14.94
						c2.37-8.61,10.24-14.93,19.6-14.93h19.33C274.97,149.12,282.85,155.44,285.22,164.05z"/>
					<path style="fill:#4FCAE8;" d="M285.95,169.46v20.95h-30v-41.29h9.66c9.36,0,17.24,6.32,19.61,14.93
						C285.7,165.77,285.95,167.58,285.95,169.46z"/>
					<path style="fill:#CDE6F6;" d="M285.22,164.05c-2.37,8.61-10.25,14.94-19.61,14.94h-9.66v-29.87h9.66
						C274.97,149.12,282.85,155.44,285.22,164.05z"/>
				</g>
				<g>
					<path style="fill:#22A8B9;" d="M90.777,172.16c4.86,10.62,14.73,18.25,30.5,18.25c51.86,0,104.67,0,104.67,0
						c0-42.16-32.24-67.78-67.05-77.76c-11.2-3.22-22.68-4.81-33.43-4.81C94.737,107.84,79.627,147.84,90.777,172.16z"/>
					<path style="fill:#4FCAE8;" d="M90.777,172.16c33.12-3.81,60.06-27.89,68.12-59.51c-11.2-3.22-22.68-4.81-33.43-4.81
						C94.737,107.84,79.627,147.84,90.777,172.16z"/>
					<path style="fill:#3F6C8E;" d="M207.714,190.41c0-35.943-26.777-53.255-62.049-53.255s-44.783,53.255-3.345,53.255
						S207.714,190.41,207.714,190.41z"/>
				</g>
			</g>
		</g>
	</g>
	<g>
		<path style="fill:#FFFFFF;" d="M436.143,354.578h-10.57c-7.352,0-13.312-5.96-13.312-13.312v-10.57
			c0-3.193-2.588-5.781-5.781-5.781h0c-3.193,0-5.781,2.588-5.781,5.781v10.57c0,7.352-5.96,13.312-13.312,13.312h-10.57
			c-3.193,0-5.781,2.588-5.781,5.781l0,0c0,3.193,2.588,5.781,5.781,5.781h10.57c7.352,0,13.312,5.96,13.312,13.312v10.57
			c0,3.193,2.588,5.781,5.781,5.781h0c3.193,0,5.781-2.588,5.781-5.781v-10.57c0-7.352,5.96-13.312,13.312-13.312h10.57
			c3.193,0,5.781-2.588,5.781-5.781l0,0C441.924,357.166,439.336,354.578,436.143,354.578z"/>
		<path style="fill:#F9C744;" d="M476.035,273.299h-8.125c-5.652,0-10.233-4.582-10.233-10.233v-8.125
			c0-2.454-1.99-4.444-4.444-4.444h0c-2.454,0-4.444,1.99-4.444,4.444v8.125c0,5.652-4.582,10.233-10.233,10.233h-8.125
			c-2.454,0-4.444,1.99-4.444,4.444v0c0,2.454,1.99,4.444,4.444,4.444h8.125c5.652,0,10.233,4.582,10.233,10.233v8.125
			c0,2.454,1.99,4.444,4.444,4.444h0c2.454,0,4.444-1.99,4.444-4.444v-8.125c0-5.652,4.582-10.233,10.233-10.233h8.125
			c2.454,0,4.444-1.99,4.444-4.444v0C480.479,275.288,478.49,273.299,476.035,273.299z"/>
		<path style="fill:#F9C744;" d="M93.254,223.518h-10.57c-7.352,0-13.312-5.96-13.312-13.312v-10.57
			c0-3.193-2.588-5.781-5.781-5.781h0c-3.193,0-5.781,2.588-5.781,5.781v10.57c0,7.352-5.96,13.312-13.312,13.312h-10.57
			c-3.193,0-5.781,2.588-5.781,5.781l0,0c0,3.193,2.588,5.781,5.781,5.781h10.57c7.352,0,13.312,5.96,13.312,13.312v10.57
			c0,3.193,2.588,5.781,5.781,5.781h0c3.193,0,5.781-2.588,5.781-5.781v-10.57c0-7.352,5.96-13.312,13.312-13.312h10.57
			c3.193,0,5.781-2.588,5.781-5.781l0,0C99.035,226.106,96.447,223.518,93.254,223.518z"/>
	</g>
</g>
</svg>
