<svg height="512pt" viewBox="-30 0 512 512" width="512pt" fill="white" xmlns="http://www.w3.org/2000/svg"><path d="m452.933594 228-57.394532-98.351562 57.394532-98.355469h-235.171875v-31.292969h-30v346.949219c-46.328125 1.214843-89.609375 8.390625-123.117188 20.511719-53.429687 19.328124-64.644531 44.339843-64.644531 61.917968 0 17.582032 11.214844 42.59375 64.648438 61.921875 36.898437 13.347657 85.652343 20.699219 137.277343 20.699219s100.378907-7.351562 137.277344-20.699219c53.433594-19.328125 64.648437-44.339843 64.648437-61.917969 0-17.582031-11.214843-42.59375-64.648437-61.921874-33.101563-11.972657-75.742187-19.117188-121.4375-20.460938v-119zm-52.242188-166.707031-39.882812 68.355469 39.882812 68.351562h-182.929687v-136.707031zm-71.691406 334.378906c33.105469 11.976563 44.851562 25.644531 44.851562 33.707031 0 8.066406-11.746093 21.734375-44.851562 33.710938-33.710938 12.195312-78.839844 18.910156-127.074219 18.910156s-93.363281-6.714844-127.074219-18.910156c-33.105468-11.976563-44.851562-25.644532-44.851562-33.707032 0-8.066406 11.746094-21.734374 44.851562-33.710937 30.386719-10.992187 70.054688-17.53125 112.910157-18.710937v52.421874h30v-52.371093c42.214843 1.304687 81.246093 7.8125 111.238281 18.660156zm0 0"/></svg>