<svg xmlns="http://www.w3.org/2000/svg" stroke="white" stroke-width="2" fill="white" viewBox="0 0 256 256"><title>icon</title><path d="M81.336,163.053a2.5,2.5,0,0,1-2.5-2.5V110.734H54.311a2.5,2.5,0,1,1,0-5H81.336a2.5,2.5,0,0,1,2.5,2.5v52.319A2.5,2.5,0,0,1,81.336,163.053Z" fill="white"/><path d="M127.615,220a2.5,2.5,0,0,1-2.5-2.5V150.093a2.5,2.5,0,0,1,5,0V217.5A2.5,2.5,0,0,1,127.615,220Z" fill="white"/><path d="M153.666,179.862a2.5,2.5,0,0,0-2.5,2.5V215H100.841a2.5,2.5,0,0,0,0,5h52.825a2.5,2.5,0,0,0,2.5-2.5V182.362A2.5,2.5,0,0,0,153.666,179.862Z" fill="white"/><path d="M71.761,158.053a30.974,30.974,0,1,0,30.974,30.973A31.008,31.008,0,0,0,71.761,158.053Zm0,56.947a25.974,25.974,0,1,1,25.974-25.974A26,26,0,0,1,71.761,215Z" fill="white"/><path d="M71.761,176.952a12.075,12.075,0,1,0,12.075,12.074A12.087,12.087,0,0,0,71.761,176.952Zm0,19.149a7.075,7.075,0,1,1,7.075-7.075A7.082,7.082,0,0,1,71.761,196.1Z" fill="white"/><path d="M176.111,30.953a221.356,221.356,0,0,0-57.214-4.9L32.126,29.941a2.452,2.452,0,0,0-.472.067A10.308,10.308,0,0,0,27.88,48.292a11.927,11.927,0,0,0,7.8,20.961h12.57a3.562,3.562,0,0,1,3.558,3.558v81.607a2.5,2.5,0,0,0,5,0V72.811a8.568,8.568,0,0,0-8.558-8.558H35.683a6.942,6.942,0,1,1,0-13.883H164.511L152.633,67.954a8.523,8.523,0,0,0-1.467,4.791,2.5,2.5,0,0,0,5,0,3.552,3.552,0,0,1,.609-1.992L170.544,50.37h3.466a9.822,9.822,0,0,0,2.1-19.417Zm-2.1,14.417H34.064a5.324,5.324,0,0,1-1.452-10.446l86.51-3.874a216.3,216.3,0,0,1,55.919,4.787,4.822,4.822,0,0,1-1.031,9.533Z" fill="white"/><path d="M204.987,146.95l-9.444-15.495a2.5,2.5,0,0,0-4.27,2.6l7.128,11.693H177.849l6.156-6.156a2.5,2.5,0,1,0-3.535-3.535l-10.423,10.423a2.5,2.5,0,0,0,0,3.536l10.423,10.422a2.5,2.5,0,0,0,3.535-3.535l-6.155-6.155h25a2.5,2.5,0,0,0,2.134-3.8Z" fill="white"/><path d="M160.142,145.751H145.229l10.06-16.508,2.053,8.46a2.5,2.5,0,0,0,4.859-1.179L158.726,122.2a2.5,2.5,0,0,0-3.02-1.84l-14.325,3.475a2.5,2.5,0,1,0,1.18,4.86l8.458-2.053L138.643,146.95a2.5,2.5,0,0,0,2.134,3.8h19.365a2.5,2.5,0,0,0,0-5Z" fill="white"/><path d="M182.058,118.936l-8.459-2.053a2.5,2.5,0,0,0-1.18,4.86l14.324,3.475a2.5,2.5,0,0,0,3.02-1.84l3.475-14.325a2.5,2.5,0,1,0-4.859-1.178l-2.052,8.458L173.949,96.025a2.5,2.5,0,0,0-4.269,0l-9.444,15.495a2.5,2.5,0,1,0,4.27,2.6l7.308-11.992Z" fill="white"/><path d="M171.814,179.915A51.915,51.915,0,1,1,223.729,128,51.974,51.974,0,0,1,171.814,179.915Zm0-98.83A46.915,46.915,0,1,0,218.729,128,46.968,46.968,0,0,0,171.814,81.085Z" fill="white"/></svg>