<svg xmlns="http://www.w3.org/2000/svg" xmlns:xlink="http://www.w3.org/1999/xlink" width="500" zoomAndPan="magnify" viewBox="0 0 375 374.999991" height="500" preserveAspectRatio="xMidYMid meet" version="1.0"><defs><clipPath id="f5fd21c4d8"><path d="M 118 91.316406 L 355 91.316406 L 355 331.929688 L 118 331.929688 Z M 118 91.316406 " clip-rule="nonzero"/></clipPath><clipPath id="0b651b7741"><path d="M 206.261719 95.261719 C 207.097656 92.941406 209.386719 91.457031 211.851562 91.65625 L 286.316406 97.582031 C 341.621094 101.980469 373.914062 138.625 342.257812 222.507812 C 310.597656 306.394531 259.746094 328.945312 198.035156 331.511719 L 123.683594 331.890625 C 119.800781 331.914062 117.144531 327.996094 118.574219 324.390625 C 135.679688 281.183594 144.875 275.648438 191.207031 279.34375 L 217.164062 281.40625 C 249.144531 283.953125 267.625 265.808594 285.8125 218.023438 C 304.003906 170.242188 299.160156 150.242188 267.179688 147.699219 L 249.457031 146.292969 C 247.023438 146.101562 244.757812 147.53125 243.902344 149.820312 L 202.5 259.511719 C 201.71875 261.578125 200.3125 264.65625 198.101562 264.734375 L 152.832031 264.78125 C 148.96875 264.914062 146.804688 260.851562 148.109375 257.214844 Z M 206.261719 95.261719 " clip-rule="nonzero"/></clipPath><clipPath id="ffd2994215"><path d="M 29.183594 262 L 140 262 L 140 279 L 29.183594 279 Z M 29.183594 262 " clip-rule="nonzero"/></clipPath><clipPath id="dfb217808a"><path d="M 132.121094 278.496094 L 37.691406 278.496094 C 33.363281 278.496094 29.855469 274.992188 29.855469 270.660156 C 29.855469 266.332031 33.363281 262.828125 37.691406 262.828125 L 132.121094 262.828125 C 136.449219 262.828125 139.953125 266.332031 139.953125 270.660156 C 139.953125 274.992188 136.449219 278.496094 132.121094 278.496094 " clip-rule="nonzero"/></clipPath><clipPath id="6d5db58767"><path d="M 55.917969 289 L 122.757812 289 L 122.757812 306 L 55.917969 306 Z M 55.917969 289 " clip-rule="nonzero"/></clipPath><clipPath id="1ea29297e2"><path d="M 114.398438 305.210938 L 63.816406 305.210938 C 59.496094 305.210938 55.980469 301.707031 55.980469 297.375 C 55.980469 293.046875 59.484375 289.542969 63.816406 289.542969 L 114.398438 289.542969 C 118.730469 289.542969 122.234375 293.046875 122.234375 297.375 C 122.234375 301.707031 118.730469 305.210938 114.398438 305.210938 " clip-rule="nonzero"/></clipPath><clipPath id="366197d789"><path d="M 20.273438 316 L 107 316 L 107 331.929688 L 20.273438 331.929688 Z M 20.273438 316 " clip-rule="nonzero"/></clipPath><clipPath id="8ccbd59a77"><path d="M 98.320312 331.925781 L 28.117188 331.925781 C 23.796875 331.925781 20.28125 328.421875 20.28125 324.089844 C 20.28125 319.761719 23.785156 316.257812 28.117188 316.257812 L 98.320312 316.257812 C 102.648438 316.257812 106.152344 319.761719 106.152344 324.089844 C 106.152344 328.421875 102.648438 331.925781 98.320312 331.925781 " clip-rule="nonzero"/></clipPath><clipPath id="ecc9b7046a"><path d="M 161 55.671875 L 245 55.671875 L 245 99 L 161 99 Z M 161 55.671875 " clip-rule="nonzero"/></clipPath><clipPath id="c638f58ef2"><path d="M 216.804688 83.613281 C 210.589844 85.164062 204.53125 87.292969 198.761719 90.0625 C 187.816406 95.316406 168.441406 100.617188 167.628906 98.34375 L 161.613281 76.558594 L 200.335938 77.105469 C 202.066406 77.128906 203.773438 76.660156 205.246094 75.734375 L 237.105469 55.746094 L 244.691406 78.023438 C 245.574219 80.5 229.316406 80.699219 216.804688 83.613281 " clip-rule="nonzero"/></clipPath><clipPath id="9bf0e6ff3c"><path d="M 141 98 L 157 98 L 157 122.507812 L 141 122.507812 Z M 141 98 " clip-rule="nonzero"/></clipPath><clipPath id="f1a03720f2"><path d="M 155.097656 108.597656 C 155.332031 106.140625 155.320312 106.609375 154.972656 103.261719 C 154.863281 102.148438 154.425781 100.585938 153.847656 98.890625 C 152.472656 100.617188 150.320312 101.8125 147.820312 102.011719 L 146.371094 102.035156 C 145.890625 102.804688 146.089844 103.742188 146.257812 104.738281 C 146.804688 107.851562 146.480469 110.082031 145.386719 112.359375 C 144.070312 115.113281 139.785156 117.714844 141.617188 119.855469 C 142.105469 120.425781 143.679688 121.242188 145.445312 121.375 C 148.066406 121.574219 150.789062 122.679688 151.113281 121.730469 C 151.757812 119.890625 153.890625 120.871094 155.632812 119.710938 C 157.394531 118.527344 156.769531 116.21875 155.789062 114.277344 C 155.152344 111.789062 154.804688 111.710938 155.097656 108.609375 " clip-rule="nonzero"/></clipPath><clipPath id="048ca16855"><path d="M 138.351562 44 L 200.730469 44 L 200.730469 91.316406 L 138.351562 91.316406 Z M 138.351562 44 " clip-rule="nonzero"/></clipPath><clipPath id="b594fd50c9"><path d="M 200.582031 46.898438 C 198.984375 41.105469 177.761719 46.933594 179.949219 52.96875 C 167.695312 60.769531 155.496094 67.5 143.265625 74.90625 C 141.472656 76 139.863281 77.609375 139.195312 79.628906 C 137.710938 84.09375 138.816406 87.160156 140.632812 91.023438 C 142.105469 89.425781 144.238281 88.332031 146.683594 88.144531 L 147.933594 88.109375 C 147.507812 86.601562 146.390625 84.671875 146.515625 82.953125 C 146.738281 79.953125 146.4375 79.058594 149.347656 77.320312 C 160.375 70.722656 174.535156 62.1875 185.570312 55.191406 C 189.722656 55.511719 202.066406 51.285156 200.582031 46.898438 " clip-rule="nonzero"/></clipPath><clipPath id="b69bc823da"><path d="M 118 24.480469 L 269.796875 24.480469 L 269.796875 74.609375 L 118 74.609375 Z M 118 24.480469 " clip-rule="nonzero"/></clipPath><clipPath id="ae78f8623e"><path d="M 161.011719 73.445312 L 160.945312 73.691406 L 200.648438 74.160156 C 201.394531 74.171875 202.121094 73.960938 202.757812 73.558594 L 240.339844 49.722656 L 267.414062 31.53125 C 270.648438 29.355469 268.964844 24.289062 265.070312 24.492188 L 231.714844 26.222656 L 185.636719 27.148438 C 184.9375 27.160156 184.242188 27.371094 183.652344 27.738281 L 146.011719 51.617188 L 120.023438 67.117188 C 116.628906 69.140625 118.125 74.351562 122.078125 74.273438 L 141.960938 73.871094 C 142.207031 73.871094 142.441406 73.847656 142.6875 73.816406 C 154.449219 66.929688 166.210938 60.132812 178.003906 52.625 L 178.0625 52.554688 C 176.65625 48.90625 181.789062 45.683594 187.390625 43.941406 C 193.894531 41.910156 201.214844 41.898438 202.5 46.140625 C 203.804688 51.539062 195.347656 55.089844 188.382812 56.460938 " clip-rule="nonzero"/></clipPath><clipPath id="413868fa45"><path d="M 140 89.089844 L 153.945312 89.089844 L 153.945312 100.230469 L 140 100.230469 Z M 140 89.089844 " clip-rule="nonzero"/></clipPath><clipPath id="3983d0fc26"><path d="M 153.367188 93.710938 C 153.890625 96.589844 151.425781 99.445312 147.863281 100.09375 C 144.304688 100.742188 140.992188 98.933594 140.464844 96.054688 C 139.941406 93.175781 142.410156 90.320312 145.96875 89.671875 C 149.527344 89.023438 152.84375 90.832031 153.355469 93.710938 " clip-rule="nonzero"/></clipPath></defs><g clip-path="url(#f5fd21c4d8)"><g clip-path="url(#0b651b7741)"><path fill="#ffffff" d="M 14.703125 18.910156 L 360.027344 18.910156 L 360.027344 337.5 L 14.703125 337.5 Z M 14.703125 18.910156 " fill-opacity="1" fill-rule="nonzero"/><path fill="#ffffff" d="M 14.703125 18.910156 L 360.027344 18.910156 L 360.027344 337.5 L 14.703125 337.5 Z M 14.703125 18.910156 " fill-opacity="1" fill-rule="nonzero"/></g></g><g clip-path="url(#ffd2994215)"><g clip-path="url(#dfb217808a)"><path fill="#ffffff" d="M 14.703125 18.910156 L 360.027344 18.910156 L 360.027344 337.5 L 14.703125 337.5 Z M 14.703125 18.910156 " fill-opacity="1" fill-rule="nonzero"/></g></g><g clip-path="url(#6d5db58767)"><g clip-path="url(#1ea29297e2)"><path fill="#ffffff" d="M 14.703125 18.910156 L 360.027344 18.910156 L 360.027344 337.5 L 14.703125 337.5 Z M 14.703125 18.910156 " fill-opacity="1" fill-rule="nonzero"/></g></g><g clip-path="url(#366197d789)"><g clip-path="url(#8ccbd59a77)"><path fill="#ffffff" d="M 14.703125 18.910156 L 360.027344 18.910156 L 360.027344 337.5 L 14.703125 337.5 Z M 14.703125 18.910156 " fill-opacity="1" fill-rule="nonzero"/></g></g><g clip-path="url(#ecc9b7046a)"><g clip-path="url(#c638f58ef2)"><path fill="#ffffff" d="M 14.703125 18.910156 L 360.027344 18.910156 L 360.027344 337.5 L 14.703125 337.5 Z M 14.703125 18.910156 " fill-opacity="1" fill-rule="nonzero"/></g></g><g clip-path="url(#9bf0e6ff3c)"><g clip-path="url(#f1a03720f2)"><path fill="#ffffff" d="M 14.703125 18.910156 L 360.027344 18.910156 L 360.027344 337.5 L 14.703125 337.5 Z M 14.703125 18.910156 " fill-opacity="1" fill-rule="nonzero"/></g></g><g clip-path="url(#048ca16855)"><g clip-path="url(#b594fd50c9)"><path fill="#ffffff" d="M 14.703125 18.910156 L 360.027344 18.910156 L 360.027344 337.5 L 14.703125 337.5 Z M 14.703125 18.910156 " fill-opacity="1" fill-rule="nonzero"/></g></g><g clip-path="url(#b69bc823da)"><g clip-path="url(#ae78f8623e)"><path fill="#ffffff" d="M 14.703125 18.910156 L 360.027344 18.910156 L 360.027344 337.5 L 14.703125 337.5 Z M 14.703125 18.910156 " fill-opacity="1" fill-rule="nonzero"/></g></g><g clip-path="url(#413868fa45)"><g clip-path="url(#3983d0fc26)"><path fill="#ffffff" d="M 14.703125 18.910156 L 360.027344 18.910156 L 360.027344 337.5 L 14.703125 337.5 Z M 14.703125 18.910156 " fill-opacity="1" fill-rule="nonzero"/></g></g></svg>