<svg width="50" height="52" viewBox="0 0 50 52" fill="none" xmlns="http://www.w3.org/2000/svg">
<path d="M49.9999 29.3503C49.9999 24.5243 47.3679 21.7693 47.3679 21.7693C48.2639 14.3173 46.3079 10.7153 40.6399 7.5813C38.0729 2.5133 29.8049 -2.6207 24.9859 1.5713C19.8949 -2.4007 12.7919 1.9533 10.9149 5.9263C9.73988 6.6303 6.69588 8.5013 6.48188 12.2143C3.87988 14.1773 2.42888 16.2693 2.60388 22.7693C0.551881 24.9773 -1.78312 28.1283 2.06288 32.6113C1.08988 36.3363 2.98388 39.8783 5.62888 42.2253C6.50288 45.5183 10.5129 48.9063 13.8769 49.1633C16.3379 53.1523 22.4859 52.4613 24.9859 49.6963C27.6029 52.8953 34.2579 52.8013 36.0949 49.1633C39.4559 48.9083 43.8389 45.6633 44.7109 42.3723C46.1819 39.5313 48.8849 36.3303 47.9099 32.6113C47.9099 32.6113 49.9999 32.1883 49.9999 29.3503ZM16.3009 45.5843C12.9779 45.0753 9.16988 43.9323 8.87088 40.3043C6.48588 38.8453 6.41188 37.3873 6.04788 35.1893C7.26988 35.8783 8.57288 36.7063 11.0339 36.9353C13.0819 41.3793 17.5089 41.3823 20.6799 41.7543L21.1479 39.6213C18.9339 39.4083 15.4419 38.3413 15.1649 36.0713C17.0629 35.9073 18.1189 34.2323 18.1189 34.2323L16.7469 32.3393C13.3859 35.6063 9.21488 32.1543 5.63388 30.7383C2.96588 27.7813 5.42588 25.5433 5.98588 24.9883C7.83888 24.7483 8.92988 27.4723 8.92988 27.4723L11.1469 26.7803C10.5889 25.0253 9.48688 21.5853 6.45088 20.5193C6.48088 17.9513 6.43788 15.3293 9.29588 14.1773C9.42388 11.3603 11.6049 9.1313 13.0109 9.3283C17.1469 10.8053 12.8379 17.6343 17.6049 20.5403L19.2379 18.6163C15.7819 15.1163 21.7549 12.6413 15.7709 6.1683C16.5929 4.5743 20.6319 3.2913 22.9839 5.0413C23.5529 8.6293 23.4389 13.3733 22.4099 15.8883C23.5529 18.8603 23.3929 22.4933 22.9839 25.7843C20.9809 24.6553 16.7509 27.3023 15.9189 24.9663L14.7759 26.7253C17.6329 30.6383 20.2269 27.6043 22.9839 30.1203C23.7029 33.6123 23.9349 36.8563 22.9839 39.4953C23.6099 41.9533 23.5529 44.2963 22.9839 46.1633C18.6429 50.3353 16.3009 45.5843 16.3009 45.5843ZM32.3709 11.0943C32.3709 11.0943 31.6079 16.0423 26.9869 15.2883C26.1569 10.6563 26.9869 5.0403 26.9869 5.0403C32.3689 2.1013 37.2299 8.1333 38.4449 10.2173C42.1779 11.9103 43.9449 15.2073 43.4499 20.8383L43.3739 20.7703C38.9919 25.9153 35.5279 16.0603 30.1499 23.5363L31.6769 24.7503C35.7509 20.5943 36.5559 29.4743 44.5469 25.0203C46.5229 26.6753 46.4689 28.8053 44.3599 30.6793C42.6349 30.8463 39.8239 31.3853 37.7639 33.0633C37.7639 33.0633 33.2989 31.9483 34.4419 29.0213L32.7959 28.3773C30.3269 31.4953 31.6979 34.7853 35.3369 36.4503C35.3369 36.4503 34.0309 38.8563 31.1089 38.7653L30.8059 41.2293C40.2009 41.3413 36.6089 34.8823 44.6849 34.7543C44.2589 37.1213 41.6259 38.9833 41.0199 40.8243C40.0299 43.6303 37.8709 44.8703 34.7329 45.3593C34.2339 47.3153 30.7919 45.6613 26.9859 46.1603C26.8209 46.1823 27.4969 43.0953 26.7539 39.0943C27.3259 36.6933 27.3419 34.0583 26.8989 30.9803C27.8019 26.6643 27.3009 22.5483 26.9859 19.3893C35.2389 19.0633 35.1439 12.4083 34.5599 10.4473" fill="black"/>
</svg>
