<?xml version="1.0" encoding="iso-8859-1"?>
<!-- Generator: Adobe Illustrator 22.0.1, SVG Export Plug-In . SVG Version: 6.00 Build 0)  -->
<svg version="1.1" id="_x35_0" xmlns="http://www.w3.org/2000/svg" xmlns:xlink="http://www.w3.org/1999/xlink" x="0px" y="0px"
	 viewBox="0 0 512 512" style="enable-background:new 0 0 512 512;" xml:space="preserve">
<g>
	<circle style="fill:#00A585;" cx="256" cy="256" r="256"/>
	<g>
		<g>
			<path style="fill:#57409B;" d="M248.305,167.823v208.188c0,7.344-5.958,13.309-13.309,13.309H108.306
				c-7.351,0-13.309-5.964-13.309-13.309V167.823c0-7.344,5.958-13.302,13.309-13.302h126.691
				C242.347,154.521,248.305,160.479,248.305,167.823z"/>
			<path style="fill:#6052A3;" d="M248.305,167.823v208.188c0,7.344-5.958,13.309-13.309,13.309h-63.346V154.521h63.346
				C242.347,154.521,248.305,160.479,248.305,167.823z"/>
		</g>
		<g>
			<g>
				<path style="fill:#6052A3;" d="M248.31,167.82v1.48c-2.09-2.35-3.38-3.58-6.01-3.58c-2.71,0-4,1.31-6.21,3.81
					c-2.31,2.61-5.47,6.19-11.47,6.19c-5.99,0-9.15-3.58-11.46-6.19c-2.21-2.5-3.5-3.81-6.21-3.81s-4,1.3-6.21,3.81
					c-2.31,2.61-5.47,6.19-11.46,6.19c-6,0-9.15-3.58-11.46-6.19c-2.21-2.49-3.49-3.8-6.2-3.81c-0.01,0-0.01,0-0.02,0
					c-2.71,0-3.99,1.3-6.21,3.81c-2.3,2.61-5.46,6.19-11.46,6.19c-5.99,0-9.15-3.58-11.46-6.19c-2.21-2.51-3.5-3.81-6.21-3.81
					s-4,1.3-6.21,3.81c-2.31,2.61-5.46,6.19-11.46,6.19s-9.15-3.58-11.46-6.19c-2.22-2.51-3.5-3.81-6.21-3.81
					c-2.59,0-3.89,1.2-5.92,3.49v-1.39c0-3.41,1.3-6.51,3.41-8.87c0.78-0.15,1.61-0.23,2.51-0.23c5.99,0,9.15,3.57,11.46,6.18
					c2.21,2.51,3.5,3.82,6.21,3.82c2.71,0,4-1.31,6.21-3.82c2.31-2.61,5.46-6.18,11.46-6.18s9.15,3.57,11.46,6.18
					c2.22,2.51,3.5,3.82,6.21,3.82c2.72,0,4-1.31,6.22-3.82c2.3-2.61,5.46-6.18,11.45-6.18c0.01,0,0.01,0,0.02,0
					c5.99,0.01,9.14,3.57,11.44,6.18c2.22,2.51,3.5,3.82,6.22,3.82c2.71,0,3.99-1.31,6.21-3.82c2.31-2.61,5.46-6.18,11.46-6.18
					s9.15,3.57,11.46,6.18c2.22,2.51,3.5,3.82,6.21,3.82c2.72,0,4-1.31,6.22-3.82c2.31-2.61,5.46-6.18,11.46-6.18
					c0.94,0,1.8,0.09,2.61,0.25C247.01,161.32,248.31,164.42,248.31,167.82z"/>
				<path style="fill:#6052A3;" d="M248.31,288.58v9.12c-2.09-2.34-3.38-3.58-6.01-3.58c-2.71,0-4,1.31-6.21,3.82
					c-2.31,2.61-5.47,6.18-11.47,6.18c-5.99,0-9.15-3.57-11.46-6.18c-2.21-2.51-3.5-3.82-6.21-3.82s-4,1.31-6.21,3.82
					c-2.31,2.61-5.47,6.18-11.46,6.18c-6,0-9.15-3.57-11.46-6.18c-2.21-2.5-3.49-3.81-6.2-3.82c-0.01,0-0.01,0-0.02,0
					c-2.71,0-3.99,1.31-6.21,3.82c-2.3,2.61-5.46,6.18-11.46,6.18c-5.99,0-9.15-3.57-11.46-6.18c-2.21-2.51-3.5-3.82-6.21-3.82
					s-4,1.31-6.21,3.82c-2.31,2.61-5.46,6.18-11.46,6.18s-9.15-3.57-11.46-6.18c-2.22-2.51-3.5-3.82-6.21-3.82
					c-2.59,0-3.89,1.21-5.92,3.5v-9.08c1.61-0.85,3.54-1.42,5.92-1.42c5.99,0,9.15,3.58,11.46,6.19c2.21,2.51,3.5,3.81,6.21,3.81
					c2.71,0,4-1.3,6.21-3.81c2.31-2.61,5.46-6.19,11.46-6.19s9.15,3.58,11.46,6.19c2.22,2.51,3.5,3.81,6.21,3.81
					c2.72,0,4-1.3,6.22-3.81c2.3-2.61,5.46-6.19,11.45-6.19c0.01,0,0.01,0,0.02,0c5.99,0.01,9.14,3.58,11.44,6.19
					c2.22,2.51,3.5,3.81,6.22,3.81c2.71,0,3.99-1.3,6.21-3.81c2.31-2.61,5.46-6.19,11.46-6.19s9.15,3.58,11.46,6.19
					c2.22,2.51,3.5,3.81,6.21,3.81c2.72,0,4-1.3,6.22-3.81c2.31-2.61,5.46-6.19,11.46-6.19
					C244.72,287.12,246.68,287.71,248.31,288.58z"/>
				<path style="fill:#6052A3;" d="M248.31,241.17v9.13c-2.09-2.35-3.38-3.58-6.01-3.58c-2.71,0-4,1.31-6.21,3.81
					c-2.31,2.61-5.47,6.19-11.47,6.19c-5.99,0-9.15-3.58-11.46-6.19c-2.21-2.5-3.5-3.81-6.21-3.81s-4,1.3-6.21,3.81
					c-2.31,2.61-5.47,6.19-11.46,6.19c-6,0-9.15-3.58-11.46-6.19c-2.21-2.49-3.49-3.8-6.2-3.81c-0.01,0-0.01,0-0.02,0
					c-2.71,0-3.99,1.3-6.21,3.81c-2.3,2.61-5.46,6.19-11.46,6.19c-5.99,0-9.15-3.58-11.46-6.19c-2.21-2.51-3.5-3.81-6.21-3.81
					s-4,1.3-6.21,3.81c-2.31,2.61-5.46,6.19-11.46,6.19s-9.15-3.58-11.46-6.19c-2.22-2.51-3.5-3.81-6.21-3.81
					c-2.59,0-3.89,1.2-5.92,3.49v-9.08c1.61-0.85,3.54-1.41,5.92-1.41c5.99,0,9.15,3.57,11.46,6.18c2.21,2.51,3.5,3.82,6.21,3.82
					c2.71,0,4-1.31,6.21-3.82c2.31-2.61,5.46-6.18,11.46-6.18s9.15,3.57,11.46,6.18c2.22,2.51,3.5,3.82,6.21,3.82
					c2.72,0,4-1.31,6.22-3.82c2.3-2.61,5.46-6.18,11.45-6.18c0.01,0,0.01,0,0.02,0c5.99,0.01,9.14,3.57,11.44,6.18
					c2.22,2.51,3.5,3.82,6.22,3.82c2.71,0,3.99-1.31,6.21-3.82c2.31-2.61,5.46-6.18,11.46-6.18s9.15,3.57,11.46,6.18
					c2.22,2.51,3.5,3.82,6.21,3.82c2.72,0,4-1.31,6.22-3.82c2.31-2.61,5.46-6.18,11.46-6.18
					C244.72,239.72,246.68,240.3,248.31,241.17z"/>
				<path style="fill:#6052A3;" d="M248.31,369.58v6.43c0,0.83-0.09,1.64-0.24,2.44c-1.95-2.18-3.24-3.33-5.77-3.33
					c-2.71,0-4,1.31-6.21,3.82c-2.31,2.61-5.47,6.18-11.47,6.18c-5.99,0-9.15-3.57-11.46-6.18c-2.21-2.51-3.5-3.82-6.21-3.82
					s-4,1.31-6.21,3.82c-2.31,2.61-5.47,6.18-11.46,6.18c-6,0-9.15-3.57-11.46-6.18c-2.21-2.5-3.49-3.81-6.2-3.82
					c-0.01,0-0.01,0-0.02,0c-2.71,0-3.99,1.31-6.21,3.82c-2.3,2.61-5.46,6.18-11.46,6.18c-5.99,0-9.15-3.57-11.46-6.18
					c-2.21-2.51-3.5-3.82-6.21-3.82s-4,1.31-6.21,3.82c-2.31,2.61-5.46,6.18-11.46,6.18s-9.15-3.57-11.46-6.18
					c-2.22-2.51-3.5-3.82-6.21-3.82c-2.5,0-3.79,1.12-5.7,3.25c-0.14-0.77-0.22-1.55-0.22-2.36v-6.47c1.61-0.85,3.54-1.42,5.92-1.42
					c5.99,0,9.15,3.58,11.46,6.19c2.21,2.51,3.5,3.81,6.21,3.81c2.71,0,4-1.3,6.21-3.81c2.31-2.61,5.46-6.19,11.46-6.19
					s9.15,3.58,11.46,6.19c2.22,2.51,3.5,3.81,6.21,3.81c2.72,0,4-1.3,6.22-3.81c2.3-2.61,5.46-6.19,11.45-6.19
					c0.01,0,0.01,0,0.02,0c5.99,0.01,9.14,3.58,11.44,6.19c2.22,2.51,3.5,3.81,6.22,3.81c2.71,0,3.99-1.3,6.21-3.81
					c2.31-2.61,5.46-6.19,11.46-6.19s9.15,3.58,11.46,6.19c2.22,2.51,3.5,3.81,6.21,3.81c2.72,0,4-1.3,6.22-3.81
					c2.31-2.61,5.46-6.19,11.46-6.19C244.72,368.12,246.68,368.71,248.31,369.58z"/>
				<path style="fill:#6052A3;" d="M248.31,342.58v9.12c-2.09-2.34-3.38-3.58-6.01-3.58c-2.71,0-4,1.31-6.21,3.82
					c-2.31,2.61-5.47,6.18-11.47,6.18c-5.99,0-9.15-3.57-11.46-6.18c-2.21-2.51-3.5-3.82-6.21-3.82s-4,1.31-6.21,3.82
					c-2.31,2.61-5.47,6.18-11.46,6.18c-6,0-9.15-3.57-11.46-6.18c-2.21-2.5-3.49-3.81-6.2-3.82c-0.01,0-0.01,0-0.02,0
					c-2.71,0-3.99,1.31-6.21,3.82c-2.3,2.61-5.46,6.18-11.46,6.18c-5.99,0-9.15-3.57-11.46-6.18c-2.21-2.51-3.5-3.82-6.21-3.82
					s-4,1.31-6.21,3.82c-2.31,2.61-5.46,6.18-11.46,6.18s-9.15-3.57-11.46-6.18c-2.22-2.51-3.5-3.82-6.21-3.82
					c-2.59,0-3.89,1.21-5.92,3.5v-9.08c1.61-0.85,3.54-1.42,5.92-1.42c5.99,0,9.15,3.58,11.46,6.19c2.21,2.51,3.5,3.81,6.21,3.81
					c2.71,0,4-1.3,6.21-3.81c2.31-2.61,5.46-6.19,11.46-6.19s9.15,3.58,11.46,6.19c2.22,2.51,3.5,3.81,6.21,3.81
					c2.72,0,4-1.3,6.22-3.81c2.3-2.61,5.46-6.19,11.45-6.19c0.01,0,0.01,0,0.02,0c5.99,0.01,9.14,3.58,11.44,6.19
					c2.22,2.51,3.5,3.81,6.22,3.81c2.71,0,3.99-1.3,6.21-3.81c2.31-2.61,5.46-6.19,11.46-6.19s9.15,3.58,11.46,6.19
					c2.22,2.51,3.5,3.81,6.21,3.81c2.72,0,4-1.3,6.22-3.81c2.31-2.61,5.46-6.19,11.46-6.19
					C244.72,341.12,246.68,341.71,248.31,342.58z"/>
				<path style="fill:#6052A3;" d="M248.31,187.17v9.13c-2.09-2.35-3.38-3.58-6.01-3.58c-2.71,0-4,1.31-6.21,3.81
					c-2.31,2.61-5.47,6.19-11.47,6.19c-5.99,0-9.15-3.58-11.46-6.19c-2.21-2.5-3.5-3.81-6.21-3.81s-4,1.3-6.21,3.81
					c-2.31,2.61-5.47,6.19-11.46,6.19c-6,0-9.15-3.58-11.46-6.19c-2.21-2.49-3.49-3.8-6.2-3.81c-0.01,0-0.01,0-0.02,0
					c-2.71,0-3.99,1.3-6.21,3.81c-2.3,2.61-5.46,6.19-11.46,6.19c-5.99,0-9.15-3.58-11.46-6.19c-2.21-2.51-3.5-3.81-6.21-3.81
					s-4,1.3-6.21,3.81c-2.31,2.61-5.46,6.19-11.46,6.19s-9.15-3.58-11.46-6.19c-2.22-2.51-3.5-3.81-6.21-3.81
					c-2.59,0-3.89,1.2-5.92,3.49v-9.08c1.61-0.85,3.54-1.41,5.92-1.41c5.99,0,9.15,3.57,11.46,6.18c2.21,2.51,3.5,3.82,6.21,3.82
					c2.71,0,4-1.31,6.21-3.82c2.31-2.61,5.46-6.18,11.46-6.18s9.15,3.57,11.46,6.18c2.22,2.51,3.5,3.82,6.21,3.82
					c2.72,0,4-1.31,6.22-3.82c2.3-2.61,5.46-6.18,11.45-6.18c0.01,0,0.01,0,0.02,0c5.99,0.01,9.14,3.57,11.44,6.18
					c2.22,2.51,3.5,3.82,6.22,3.82c2.71,0,3.99-1.31,6.21-3.82c2.31-2.61,5.46-6.18,11.46-6.18s9.15,3.57,11.46,6.18
					c2.22,2.51,3.5,3.82,6.21,3.82c2.72,0,4-1.31,6.22-3.82c2.31-2.61,5.46-6.18,11.46-6.18
					C244.72,185.72,246.68,186.3,248.31,187.17z"/>
				<path style="fill:#6052A3;" d="M248.31,214.17v9.13c-2.09-2.35-3.38-3.58-6.01-3.58c-2.71,0-4,1.31-6.21,3.81
					c-2.31,2.61-5.47,6.19-11.47,6.19c-5.99,0-9.15-3.58-11.46-6.19c-2.21-2.5-3.5-3.81-6.21-3.81s-4,1.3-6.21,3.81
					c-2.31,2.61-5.47,6.19-11.46,6.19c-6,0-9.15-3.58-11.46-6.19c-2.21-2.49-3.49-3.8-6.2-3.81c-0.01,0-0.01,0-0.02,0
					c-2.71,0-3.99,1.3-6.21,3.81c-2.3,2.61-5.46,6.19-11.46,6.19c-5.99,0-9.15-3.58-11.46-6.19c-2.21-2.51-3.5-3.81-6.21-3.81
					s-4,1.3-6.21,3.81c-2.31,2.61-5.46,6.19-11.46,6.19s-9.15-3.58-11.46-6.19c-2.22-2.51-3.5-3.81-6.21-3.81
					c-2.59,0-3.89,1.2-5.92,3.49v-9.08c1.61-0.85,3.54-1.41,5.92-1.41c5.99,0,9.15,3.57,11.46,6.18c2.21,2.51,3.5,3.82,6.21,3.82
					c2.71,0,4-1.31,6.21-3.82c2.31-2.61,5.46-6.18,11.46-6.18s9.15,3.57,11.46,6.18c2.22,2.51,3.5,3.82,6.21,3.82
					c2.72,0,4-1.31,6.22-3.82c2.3-2.61,5.46-6.18,11.45-6.18c0.01,0,0.01,0,0.02,0c5.99,0.01,9.14,3.57,11.44,6.18
					c2.22,2.51,3.5,3.82,6.22,3.82c2.71,0,3.99-1.31,6.21-3.82c2.31-2.61,5.46-6.18,11.46-6.18s9.15,3.57,11.46,6.18
					c2.22,2.51,3.5,3.82,6.21,3.82c2.72,0,4-1.31,6.22-3.82c2.31-2.61,5.46-6.18,11.46-6.18
					C244.72,212.72,246.68,213.3,248.31,214.17z"/>
				<path style="fill:#6052A3;" d="M248.31,315.58v9.12c-2.09-2.34-3.38-3.58-6.01-3.58c-2.71,0-4,1.31-6.21,3.82
					c-2.31,2.61-5.47,6.18-11.47,6.18c-5.99,0-9.15-3.57-11.46-6.18c-2.21-2.51-3.5-3.82-6.21-3.82s-4,1.31-6.21,3.82
					c-2.31,2.61-5.47,6.18-11.46,6.18c-6,0-9.15-3.57-11.46-6.18c-2.21-2.5-3.49-3.81-6.2-3.82c-0.01,0-0.01,0-0.02,0
					c-2.71,0-3.99,1.31-6.21,3.82c-2.3,2.61-5.46,6.18-11.46,6.18c-5.99,0-9.15-3.57-11.46-6.18c-2.21-2.51-3.5-3.82-6.21-3.82
					s-4,1.31-6.21,3.82c-2.31,2.61-5.46,6.18-11.46,6.18s-9.15-3.57-11.46-6.18c-2.22-2.51-3.5-3.82-6.21-3.82
					c-2.59,0-3.89,1.21-5.92,3.5v-9.08c1.61-0.85,3.54-1.42,5.92-1.42c5.99,0,9.15,3.58,11.46,6.19c2.21,2.51,3.5,3.81,6.21,3.81
					c2.71,0,4-1.3,6.21-3.81c2.31-2.61,5.46-6.19,11.46-6.19s9.15,3.58,11.46,6.19c2.22,2.51,3.5,3.81,6.21,3.81
					c2.72,0,4-1.3,6.22-3.81c2.3-2.61,5.46-6.19,11.45-6.19c0.01,0,0.01,0,0.02,0c5.99,0.01,9.14,3.58,11.44,6.19
					c2.22,2.51,3.5,3.81,6.22,3.81c2.71,0,3.99-1.3,6.21-3.81c2.31-2.61,5.46-6.19,11.46-6.19s9.15,3.58,11.46,6.19
					c2.22,2.51,3.5,3.81,6.21,3.81c2.72,0,4-1.3,6.22-3.81c2.31-2.61,5.46-6.19,11.46-6.19
					C244.72,314.12,246.68,314.71,248.31,315.58z"/>
			</g>
			<g>
				<path style="fill:#7063CE;" d="M248.31,167.82v1.48c-2.09-2.35-3.38-3.58-6.01-3.58c-2.71,0-4,1.31-6.21,3.81
					c-2.31,2.61-5.47,6.19-11.47,6.19c-5.99,0-9.15-3.58-11.46-6.19c-2.21-2.5-3.5-3.81-6.21-3.81s-4,1.3-6.21,3.81
					c-2.31,2.61-5.47,6.19-11.46,6.19c-6,0-9.15-3.58-11.46-6.19c-2.21-2.49-3.49-3.8-6.2-3.81v-7c5.99,0.01,9.14,3.57,11.44,6.18
					c2.22,2.51,3.5,3.82,6.22,3.82c2.71,0,3.99-1.31,6.21-3.82c2.31-2.61,5.46-6.18,11.46-6.18s9.15,3.57,11.46,6.18
					c2.22,2.51,3.5,3.82,6.21,3.82c2.72,0,4-1.31,6.22-3.82c2.31-2.61,5.46-6.18,11.46-6.18c0.94,0,1.8,0.09,2.61,0.25
					C247.01,161.32,248.31,164.42,248.31,167.82z"/>
				<path style="fill:#7063CE;" d="M230.84,191.9c-2.22,2.51-3.5,3.82-6.22,3.82c-2.71,0-3.99-1.31-6.21-3.82
					c-2.31-2.61-5.46-6.18-11.46-6.18s-9.15,3.57-11.46,6.18c-2.22,2.51-3.5,3.82-6.21,3.82c-2.72,0-4-1.31-6.22-3.82
					c-2.3-2.61-5.45-6.17-11.44-6.18v7c2.71,0.01,3.99,1.32,6.2,3.81c2.31,2.61,5.46,6.19,11.46,6.19c5.99,0,9.15-3.58,11.46-6.19
					c2.21-2.51,3.5-3.81,6.21-3.81s4,1.31,6.21,3.81c2.31,2.61,5.47,6.19,11.46,6.19c6,0,9.16-3.58,11.47-6.19
					c2.21-2.5,3.5-3.81,6.21-3.81c2.63,0,3.92,1.23,6.01,3.58v-9.13c-1.63-0.87-3.59-1.45-6.01-1.45
					C236.3,185.72,233.15,189.29,230.84,191.9z"/>
				<path style="fill:#7063CE;" d="M230.84,218.9c-2.22,2.51-3.5,3.82-6.22,3.82c-2.71,0-3.99-1.31-6.21-3.82
					c-2.31-2.61-5.46-6.18-11.46-6.18s-9.15,3.57-11.46,6.18c-2.22,2.51-3.5,3.82-6.21,3.82c-2.72,0-4-1.31-6.22-3.82
					c-2.3-2.61-5.45-6.17-11.44-6.18v7c2.71,0.01,3.99,1.32,6.2,3.81c2.31,2.61,5.46,6.19,11.46,6.19c5.99,0,9.15-3.58,11.46-6.19
					c2.21-2.51,3.5-3.81,6.21-3.81s4,1.31,6.21,3.81c2.31,2.61,5.47,6.19,11.46,6.19c6,0,9.16-3.58,11.47-6.19
					c2.21-2.5,3.5-3.81,6.21-3.81c2.63,0,3.92,1.23,6.01,3.58v-9.13c-1.63-0.87-3.59-1.45-6.01-1.45
					C236.3,212.72,233.15,216.29,230.84,218.9z"/>
				<path style="fill:#7063CE;" d="M230.84,245.9c-2.22,2.51-3.5,3.82-6.22,3.82c-2.71,0-3.99-1.31-6.21-3.82
					c-2.31-2.61-5.46-6.18-11.46-6.18s-9.15,3.57-11.46,6.18c-2.22,2.51-3.5,3.82-6.21,3.82c-2.72,0-4-1.31-6.22-3.82
					c-2.3-2.61-5.45-6.17-11.44-6.18v7c2.71,0.01,3.99,1.32,6.2,3.81c2.31,2.61,5.46,6.19,11.46,6.19c5.99,0,9.15-3.58,11.46-6.19
					c2.21-2.51,3.5-3.81,6.21-3.81s4,1.31,6.21,3.81c2.31,2.61,5.47,6.19,11.46,6.19c6,0,9.16-3.58,11.47-6.19
					c2.21-2.5,3.5-3.81,6.21-3.81c2.63,0,3.92,1.23,6.01,3.58v-9.13c-1.63-0.87-3.59-1.45-6.01-1.45
					C236.3,239.72,233.15,243.29,230.84,245.9z"/>
				<path style="fill:#7063CE;" d="M230.84,293.31c-2.22,2.51-3.5,3.81-6.22,3.81c-2.71,0-3.99-1.3-6.21-3.81
					c-2.31-2.61-5.46-6.19-11.46-6.19s-9.15,3.58-11.46,6.19c-2.22,2.51-3.5,3.81-6.21,3.81c-2.72,0-4-1.3-6.22-3.81
					c-2.3-2.61-5.45-6.18-11.44-6.19v7c2.71,0.01,3.99,1.32,6.2,3.82c2.31,2.61,5.46,6.18,11.46,6.18c5.99,0,9.15-3.57,11.46-6.18
					c2.21-2.51,3.5-3.82,6.21-3.82s4,1.31,6.21,3.82c2.31,2.61,5.47,6.18,11.46,6.18c6,0,9.16-3.57,11.47-6.18
					c2.21-2.51,3.5-3.82,6.21-3.82c2.63,0,3.92,1.24,6.01,3.58v-9.12c-1.63-0.87-3.59-1.46-6.01-1.46
					C236.3,287.12,233.15,290.7,230.84,293.31z"/>
				<path style="fill:#7063CE;" d="M230.84,320.31c-2.22,2.51-3.5,3.81-6.22,3.81c-2.71,0-3.99-1.3-6.21-3.81
					c-2.31-2.61-5.46-6.19-11.46-6.19s-9.15,3.58-11.46,6.19c-2.22,2.51-3.5,3.81-6.21,3.81c-2.72,0-4-1.3-6.22-3.81
					c-2.3-2.61-5.45-6.18-11.44-6.19v7c2.71,0.01,3.99,1.32,6.2,3.82c2.31,2.61,5.46,6.18,11.46,6.18c5.99,0,9.15-3.57,11.46-6.18
					c2.21-2.51,3.5-3.82,6.21-3.82s4,1.31,6.21,3.82c2.31,2.61,5.47,6.18,11.46,6.18c6,0,9.16-3.57,11.47-6.18
					c2.21-2.51,3.5-3.82,6.21-3.82c2.63,0,3.92,1.24,6.01,3.58v-9.12c-1.63-0.87-3.59-1.46-6.01-1.46
					C236.3,314.12,233.15,317.7,230.84,320.31z"/>
				<path style="fill:#7063CE;" d="M230.84,347.31c-2.22,2.51-3.5,3.81-6.22,3.81c-2.71,0-3.99-1.3-6.21-3.81
					c-2.31-2.61-5.46-6.19-11.46-6.19s-9.15,3.58-11.46,6.19c-2.22,2.51-3.5,3.81-6.21,3.81c-2.72,0-4-1.3-6.22-3.81
					c-2.3-2.61-5.45-6.18-11.44-6.19v7c2.71,0.01,3.99,1.32,6.2,3.82c2.31,2.61,5.46,6.18,11.46,6.18c5.99,0,9.15-3.57,11.46-6.18
					c2.21-2.51,3.5-3.82,6.21-3.82s4,1.31,6.21,3.82c2.31,2.61,5.47,6.18,11.46,6.18c6,0,9.16-3.57,11.47-6.18
					c2.21-2.51,3.5-3.82,6.21-3.82c2.63,0,3.92,1.24,6.01,3.58v-9.12c-1.63-0.87-3.59-1.46-6.01-1.46
					C236.3,341.12,233.15,344.7,230.84,347.31z"/>
				<path style="fill:#7063CE;" d="M230.84,374.31c-2.22,2.51-3.5,3.81-6.22,3.81c-2.71,0-3.99-1.3-6.21-3.81
					c-2.31-2.61-5.46-6.19-11.46-6.19s-9.15,3.58-11.46,6.19c-2.22,2.51-3.5,3.81-6.21,3.81c-2.72,0-4-1.3-6.22-3.81
					c-2.3-2.61-5.45-6.18-11.44-6.19v7c2.71,0.01,3.99,1.32,6.2,3.82c2.31,2.61,5.46,6.18,11.46,6.18c5.99,0,9.15-3.57,11.46-6.18
					c2.21-2.51,3.5-3.82,6.21-3.82s4,1.31,6.21,3.82c2.31,2.61,5.47,6.18,11.46,6.18c6,0,9.16-3.57,11.47-6.18
					c2.21-2.51,3.5-3.82,6.21-3.82c2.53,0,3.82,1.15,5.77,3.33c0.15-0.8,0.24-1.61,0.24-2.44v-6.43c-1.63-0.87-3.59-1.46-6.01-1.46
					C236.3,368.12,233.15,371.7,230.84,374.31z"/>
			</g>
		</g>
		<g>
			<g>
				<rect x="160.642" y="154.521" style="fill:#4FCAE8;" width="22.019" height="234.799"/>
				<rect x="171.619" y="154.521" style="fill:#CDE6F6;" width="11.042" height="234.799"/>
				
					<rect x="116.81" y="239.098" transform="matrix(6.123234e-17 -1 1 6.123234e-17 -144.1009 399.7397)" style="fill:#22A8B9;" width="22.019" height="65.645"/>
				
					<rect x="204.474" y="239.098" transform="matrix(6.123234e-17 -1 1 6.123234e-17 -56.4372 487.4034)" style="fill:#4FCAE8;" width="22.019" height="65.645"/>
				<rect x="182.661" y="260.911" style="fill:#CDE6F6;" width="65.645" height="11.01"/>
				<rect x="94.997" y="260.911" style="fill:#4FCAE8;" width="65.645" height="11.01"/>
			</g>
			<g>
				<g>
					<path style="fill:#4FCAE8;" d="M271.629,143.471c-2.943,6.43-8.919,11.05-18.467,11.05c-31.4,0-63.376,0-63.376,0
						c0-25.527,19.521-41.04,40.598-47.082c6.781-1.95,13.732-2.912,20.241-2.912C269.231,104.526,278.38,128.745,271.629,143.471z"
						/>
					<path style="fill:#CDE6F6;" d="M271.629,143.471c-20.054-2.307-36.365-16.887-41.246-36.032
						c6.781-1.95,13.732-2.912,20.241-2.912C269.231,104.526,278.38,128.745,271.629,143.471z"/>
					<path style="fill:#22A8B9;" d="M200.825,154.521c0-21.763,16.213-32.245,37.57-32.245s27.116,32.245,2.025,32.245
						S200.825,154.521,200.825,154.521z"/>
				</g>
				<g>
					<path style="fill:#22A8B9;" d="M189.785,141.836v12.685h-36.329v-12.685c0-1.138,0.151-2.234,0.442-3.276
						c1.435-5.213,6.2-9.04,11.868-9.04h11.704c5.667,0,10.439,3.827,11.874,9.04C189.634,139.602,189.785,140.698,189.785,141.836z
						"/>
					<path style="fill:#4FCAE8;" d="M189.343,138.56c-1.435,5.213-6.206,9.046-11.874,9.046h-11.704
						c-5.667,0-10.439-3.833-11.868-9.046c1.435-5.213,6.2-9.04,11.868-9.04h11.704C183.137,129.521,187.908,133.347,189.343,138.56
						z"/>
					<path style="fill:#4FCAE8;" d="M189.785,141.836v12.685h-18.164v-25h5.849c5.667,0,10.439,3.827,11.874,9.04
						C189.634,139.602,189.785,140.698,189.785,141.836z"/>
					<path style="fill:#CDE6F6;" d="M189.343,138.56c-1.435,5.213-6.206,9.046-11.874,9.046h-5.849v-18.086h5.849
						C183.137,129.521,187.908,133.347,189.343,138.56z"/>
				</g>
				<g>
					<path style="fill:#22A8B9;" d="M71.612,143.471c2.943,6.43,8.919,11.05,18.467,11.05c31.4,0,63.376,0,63.376,0
						c0-25.527-19.521-41.04-40.598-47.082c-6.781-1.95-13.732-2.912-20.241-2.912C74.009,104.526,64.86,128.745,71.612,143.471z"/>
					<path style="fill:#4FCAE8;" d="M71.612,143.471c20.054-2.307,36.365-16.887,41.246-36.032
						c-6.781-1.95-13.732-2.912-20.241-2.912C74.009,104.526,64.86,128.745,71.612,143.471z"/>
					<path style="fill:#3F6C8E;" d="M142.415,154.521c0-21.763-16.213-32.245-37.57-32.245s-27.116,32.245-2.025,32.245
						S142.415,154.521,142.415,154.521z"/>
				</g>
			</g>
		</g>
	</g>
	<g>
		<g>
			<path style="fill:#E9465E;" d="M405.11,220.14v163.65c0,5.82-29.38,10.53-65.63,10.53s-65.64-4.71-65.64-10.53V220.14H405.11z"/>
			<path style="fill:#EE6781;" d="M405.11,220.14v163.65c0,5.82-29.38,10.53-65.63,10.53V220.14H405.11z"/>
		</g>
		<g>
			<path style="fill:#EE6781;" d="M405.11,220.14c0,5.81-29.38,10.53-65.63,10.53s-65.64-4.72-65.64-10.53
				c0-5.81,29.39-10.53,65.64-10.53S405.11,214.33,405.11,220.14z"/>
			<path style="fill:#F4829B;" d="M405.11,220.14c0,5.81-29.38,10.53-65.63,10.53v-21.06C375.73,209.61,405.11,214.33,405.11,220.14
				z"/>
		</g>
		<g>
			<path style="fill:#F4829B;" d="M324.48,264.32c0,8.29,6.71,15.01,15,15.01v-30.01C331.19,249.32,324.48,256.04,324.48,264.32z"/>
			<path style="fill:#F4829B;" d="M324.48,349.58c0,8.28,6.71,15,15,15v-30.01C331.19,334.57,324.48,341.29,324.48,349.58z"/>
			<circle style="fill:#F4829B;" cx="297.247" cy="249.322" r="15.002"/>
			<path style="fill:#F4829B;" d="M273.85,333.92v20.57c2.73,2.91,6.61,4.72,10.91,4.72c8.29,0,15-6.72,15-15.01
				c0-8.28-6.71-15-15-15C280.46,329.2,276.58,331.01,273.85,333.92z"/>
			<circle style="fill:#F4829B;" cx="304.99" cy="297.932" r="15.002"/>
			<path style="fill:#F4829B;" d="M291.66,382.73c0,3.26,1.04,6.27,2.8,8.73c6.4,0.96,14.02,1.73,22.46,2.22c0,0,0,0,0.01,0
				c2.92-2.74,4.74-6.63,4.74-10.95c0-8.28-6.72-15-15-15C298.38,367.73,291.66,374.45,291.66,382.73z"/>
		</g>
		<g>
			<path style="fill:#FF9FB4;" d="M354.48,264.32c0,8.29-6.71,15.01-15,15.01v-30.01C347.77,249.32,354.48,256.04,354.48,264.32z"/>
			<path style="fill:#FF9FB4;" d="M354.48,349.58c0,8.28-6.71,15-15,15v-30.01C347.77,334.57,354.48,341.29,354.48,349.58z"/>
			<circle style="fill:#FF9FB4;" cx="381.713" cy="249.322" r="15.002"/>
			<path style="fill:#FF9FB4;" d="M405.11,333.92v20.57c-2.73,2.91-6.61,4.72-10.91,4.72c-8.29,0-15-6.72-15-15.01
				c0-8.28,6.71-15,15-15C398.5,329.2,402.38,331.01,405.11,333.92z"/>
			<circle style="fill:#FF9FB4;" cx="373.97" cy="297.932" r="15.002"/>
			<path style="fill:#FF9FB4;" d="M387.3,382.73c0,3.26-1.04,6.27-2.8,8.73c-6.4,0.96-14.02,1.73-22.46,2.22c0,0,0,0-0.01,0
				c-2.92-2.74-4.74-6.63-4.74-10.95c0-8.28,6.72-15,15-15C380.58,367.73,387.3,374.45,387.3,382.73z"/>
		</g>
		<g>
			<g>
				<path style="fill:#57409B;" d="M405.11,289.64v24.65c0,5.81-29.38,10.53-65.63,10.53s-65.64-4.72-65.64-10.53v-24.65
					c0,5.81,29.39,10.53,65.64,10.53S405.11,295.45,405.11,289.64z"/>
				<path style="fill:#6052A3;" d="M405.11,289.64v24.65c0,5.81-29.38,10.53-65.63,10.53v-24.65
					C375.73,300.17,405.11,295.45,405.11,289.64z"/>
			</g>
			<g>
				<g>
					<path style="fill:#7063CE;" d="M411.646,242.812c-3.803,1.741-6.536,5.275-6.536,10.923c0,18.573,0,37.486,0,37.486
						c15.099,0,24.274-11.546,27.848-24.013c1.153-4.011,1.723-8.122,1.723-11.972C434.681,244.23,420.356,238.819,411.646,242.812z
						"/>
					<path style="fill:#7D73FF;" d="M411.646,242.812c1.364,11.861,9.988,21.51,21.313,24.396c1.153-4.011,1.723-8.122,1.723-11.972
						C434.681,244.23,420.356,238.819,411.646,242.812z"/>
					<path style="fill:#6052A3;" d="M405.11,284.691c12.872,0,19.072-9.59,19.072-22.222c0-12.632-19.072-16.038-19.072-1.198
						C405.11,276.111,405.11,284.691,405.11,284.691z"/>
				</g>
				<g>
					<path style="fill:#6052A3;" d="M412.613,291.221h-7.503v21.488h7.503c0.673,0,1.321-0.09,1.937-0.261
						c3.084-0.849,5.347-3.667,5.347-7.019v-6.923c0-3.352-2.263-6.174-5.347-7.023C413.934,291.31,413.286,291.221,412.613,291.221
						z"/>
					<path style="fill:#7063CE;" d="M414.55,291.482c-3.083,0.849-5.35,3.671-5.35,7.023v6.923c0,3.352,2.267,6.174,5.35,7.019
						c3.084-0.849,5.347-3.667,5.347-7.019v-6.923C419.897,295.153,417.634,292.331,414.55,291.482z"/>
					<path style="fill:#7063CE;" d="M412.613,291.221h-7.503v10.744h14.787v-3.46c0-3.352-2.263-6.174-5.347-7.023
						C413.934,291.31,413.286,291.221,412.613,291.221z"/>
					<path style="fill:#7D73FF;" d="M414.55,291.482c-3.083,0.849-5.35,3.671-5.35,7.023v3.46h10.697v-3.46
						C419.897,295.153,417.634,292.331,414.55,291.482z"/>
				</g>
				<g>
					<path style="fill:#6052A3;" d="M411.646,361.119c-3.803-1.741-6.536-5.275-6.536-10.923c0-18.573,0-37.486,0-37.486
						c15.099,0,24.274,11.546,27.848,24.013c1.153,4.011,1.723,8.122,1.723,11.972C434.681,359.7,420.356,365.112,411.646,361.119z"
						/>
					<path style="fill:#7063CE;" d="M411.646,361.119c1.364-11.861,9.988-21.51,21.313-24.396c1.153,4.011,1.723,8.122,1.723,11.972
						C434.681,359.7,420.356,365.112,411.646,361.119z"/>
					<path style="fill:#57409B;" d="M405.11,319.24c12.872,0,19.072,9.59,19.072,22.222c0,12.632-19.072,16.038-19.072,1.198
						C405.11,327.819,405.11,319.24,405.11,319.24z"/>
				</g>
			</g>
		</g>
	</g>
	<g>
		<path style="fill:#FFFFFF;" d="M369.143,141.825h-10.57c-7.352,0-13.312-5.96-13.312-13.312v-10.57
			c0-3.193-2.588-5.781-5.781-5.781h0c-3.193,0-5.781,2.588-5.781,5.781v10.57c0,7.352-5.96,13.312-13.312,13.312h-10.57
			c-3.193,0-5.781,2.588-5.781,5.781v0c0,3.193,2.588,5.781,5.781,5.781h10.57c7.352,0,13.312,5.96,13.312,13.312v10.57
			c0,3.193,2.588,5.781,5.781,5.781h0c3.193,0,5.781-2.588,5.781-5.781v-10.57c0-7.352,5.96-13.312,13.312-13.312h10.57
			c3.193,0,5.781-2.588,5.781-5.781v0C374.924,144.414,372.335,141.825,369.143,141.825z"/>
		<path style="fill:#9DEDDD;" d="M409.016,84.253h-8.125c-5.652,0-10.233-4.582-10.233-10.233v-8.125
			c0-2.454-1.99-4.444-4.444-4.444h0c-2.454,0-4.444,1.99-4.444,4.444v8.125c0,5.652-4.582,10.233-10.233,10.233h-8.125
			c-2.454,0-4.444,1.99-4.444,4.444v0c0,2.454,1.99,4.444,4.444,4.444h8.125c5.652,0,10.233,4.582,10.233,10.233v8.125
			c0,2.454,1.99,4.444,4.444,4.444h0c2.454,0,4.444-1.99,4.444-4.444v-8.125c0-5.652,4.582-10.233,10.233-10.233h8.125
			c2.454,0,4.444-1.99,4.444-4.444v0C413.46,86.243,411.471,84.253,409.016,84.253z"/>
		<path style="fill:#9DEDDD;" d="M102.491,335.339h-10.57c-7.352,0-13.312-5.96-13.312-13.312v-10.57
			c0-3.193-2.588-5.781-5.781-5.781h0c-3.193,0-5.781,2.588-5.781,5.781v10.57c0,7.352-5.96,13.312-13.312,13.312h-10.57
			c-3.193,0-5.781,2.588-5.781,5.781l0,0c0,3.193,2.588,5.781,5.781,5.781h10.57c7.352,0,13.312,5.96,13.312,13.312v10.57
			c0,3.193,2.588,5.781,5.781,5.781h0c3.193,0,5.781-2.588,5.781-5.781v-10.57c0-7.352,5.96-13.312,13.312-13.312h10.57
			c3.193,0,5.781-2.588,5.781-5.781l0,0C108.272,337.927,105.683,335.339,102.491,335.339z"/>
	</g>
</g>
</svg>
