<?xml version="1.0" encoding="iso-8859-1"?>
<!-- Generator: Adobe Illustrator 22.0.1, SVG Export Plug-In . SVG Version: 6.00 Build 0)  -->
<svg version="1.1" id="_x35_0" xmlns="http://www.w3.org/2000/svg" xmlns:xlink="http://www.w3.org/1999/xlink" x="0px" y="0px"
	 viewBox="0 0 512 512" style="enable-background:new 0 0 512 512;" xml:space="preserve">
<g>
	<circle style="fill:#F39E22;" cx="256" cy="256" r="256"/>
	<g>
		<g>
			<path style="fill:#FBCB74;" d="M449.153,209.525v167.411c0,16.794-13.611,30.417-30.405,30.417H93.252
				c-16.794,0-30.405-13.624-30.405-30.417V209.525H449.153z"/>
			<path style="fill:#FAD98F;" d="M62.847,209.525L234.286,55.388c12.347-11.101,31.08-11.101,43.427,0l171.439,154.137H62.847z"/>
		</g>
		<g>
			<g>
				<path style="fill:#7063CE;" d="M384.198,161.463v124.577c0,13.314-10.792,24.105-24.096,24.105H149.035
					c-5.809,0-11.152-2.057-15.308-5.484c-5.369-4.429-8.788-11.125-8.788-18.621V161.463c0-6.318,2.425-12.057,6.398-16.355
					c0.747-0.808,1.538-1.555,2.39-2.249c4.157-3.436,9.5-5.501,15.308-5.501h211.067c6.995,0,13.305,2.988,17.699,7.751
					C381.773,149.406,384.198,155.144,384.198,161.463z"/>
				<path style="fill:#7063CE;" d="M384.198,161.463v124.577c0,13.314-10.792,24.105-24.096,24.105H254.569V137.357h105.533
					c6.995,0,13.305,2.988,17.699,7.751C381.773,149.406,384.198,155.144,384.198,161.463z"/>
				<path style="fill:#7D73FF;" d="M384.198,161.463v124.577c0,13.314-10.792,24.105-24.096,24.105H254.569V137.357h105.533
					c6.995,0,13.305,2.988,17.699,7.751C381.773,149.406,384.198,155.144,384.198,161.463z"/>
				<path style="fill:#7D73FF;" d="M377.801,145.108c-4.403,4.763-10.704,7.742-17.699,7.742H149.035
					c-6.995,0-13.296-2.979-17.699-7.742c4.394-4.763,10.704-7.751,17.699-7.751h211.067
					C367.097,137.357,373.407,140.345,377.801,145.108z"/>
				<path style="fill:#57409B;" d="M142.514,161.463v124.577c0,7.496-3.418,14.192-8.788,18.621
					c-5.369-4.429-8.788-11.125-8.788-18.621V161.463c0-6.318,2.425-12.057,6.398-16.355c0.747-0.808,1.538-1.555,2.39-2.249
					c0.852,0.694,1.643,1.441,2.39,2.249C140.089,149.406,142.514,155.144,142.514,161.463z"/>
				<path style="fill:#6052A3;" d="M366.623,286.057V161.48c0-7.496,3.418-14.192,8.788-18.621
					c5.369,4.429,8.788,11.125,8.788,18.621v124.577c0,6.318-2.425,12.057-6.398,16.355c-0.747,0.808-1.538,1.555-2.39,2.249
					c-0.852-0.694-1.643-1.441-2.39-2.249C369.048,298.114,366.623,292.375,366.623,286.057z"/>
				<path style="fill:#B5B3FF;" d="M377.801,145.108c-4.403,4.763-10.704,7.742-17.699,7.742H254.569v-15.493h105.533
					C367.097,137.357,373.407,140.345,377.801,145.108z"/>
			</g>
			<path style="fill:#CDE6F6;" d="M322.461,263.552c-2.271-0.903-5.19-1.795-8.755-2.673c-4.642-1.45-10.514-1.759-10.843-7.033
				c0.062-4.539,4.266-6.475,8.719-6.447c4.812,0.001,7.128,1.324,11.208,3.81c4.564,3.311,8.58-1.114,6.704-5.715
				c-0.318-0.633-0.843-1.196-1.575-1.685c-3.86-2.734-7.985-4.395-12.381-4.982v-4.029c0.035-2.604-1.793-4.43-4.396-4.395
				c-2.527-0.031-4.446,1.824-4.396,4.395v4.176c-8.266,1.332-15.291,7.141-15.238,15.605c0,3.37,0.843,6.056,2.528,8.058
				c4.086,4.737,8.613,5.312,14.983,7.179c4.299,1.48,10.061,1.738,10.402,6.521c-0.137,7.296-10.053,6.968-15.422,5.384
				c-2.027-0.609-4.164-1.574-6.41-2.893c-2.43-1.318-4.247-1.895-6.043,0.219c-1.738,2.136-1.603,5.769,0.99,7.179
				c3.986,2.872,9.396,4.611,14.432,5.055v3.956c-0.05,2.571,1.868,4.428,4.396,4.396c2.603,0.035,4.43-1.793,4.395-4.396v-4.176
				c4.591-0.781,8.242-2.528,10.952-5.238C333.568,278.984,331.661,266.895,322.461,263.552z"/>
			<g>
				<g>
					<rect x="198.97" y="137.357" style="fill:#4FCAE8;" width="29.235" height="172.787"/>
					<rect x="213.545" y="137.357" style="fill:#CDE6F6;" width="14.66" height="172.787"/>
					<g>
						<g>
							<rect x="228.205" y="191.558" style="fill:#4FCAE8;" width="155.993" height="29.235"/>
							<rect x="228.205" y="191.558" style="fill:#CDE6F6;" width="155.993" height="14.617"/>
						</g>
						<g>
							<rect x="124.939" y="191.558" style="fill:#22A8B9;" width="74.031" height="29.235"/>
							<rect x="124.939" y="191.558" style="fill:#4FCAE8;" width="74.031" height="14.626"/>
						</g>
					</g>
				</g>
				<g>
					<g>
						<path style="fill:#4FCAE8;" d="M346.327,122.686c-3.907,8.537-11.841,14.671-24.519,14.671c-41.69,0-84.144,0-84.144,0
							c0-33.892,25.918-54.488,53.901-62.511c9.004-2.589,18.232-3.867,26.874-3.867C343.143,70.98,355.29,103.136,346.327,122.686z
							"/>
						<path style="fill:#CDE6F6;" d="M346.327,122.686c-26.625-3.063-48.282-22.421-54.761-47.84
							c9.004-2.589,18.232-3.867,26.874-3.867C343.143,70.98,355.29,103.136,346.327,122.686z"/>
						<path style="fill:#22A8B9;" d="M252.322,137.357c0-28.894,21.526-42.811,49.881-42.811c28.355,0,36.001,42.811,2.689,42.811
							S252.322,137.357,252.322,137.357z"/>
					</g>
					<g>
						<path style="fill:#22A8B9;" d="M237.664,120.516v16.842h-48.234v-16.842c0-1.511,0.201-2.966,0.587-4.349
							c1.905-6.922,8.232-12.002,15.756-12.002h15.539c7.524,0,13.859,5.08,15.764,12.002
							C237.463,117.55,237.664,119.005,237.664,120.516z"/>
						<path style="fill:#4FCAE8;" d="M237.077,116.167c-1.905,6.921-8.24,12.01-15.764,12.01h-15.539
							c-7.525,0-13.859-5.089-15.756-12.01c1.905-6.922,8.232-12.002,15.756-12.002h15.539
							C228.837,104.165,235.172,109.245,237.077,116.167z"/>
						<path style="fill:#4FCAE8;" d="M237.664,120.516v16.842h-24.117v-33.193h7.766c7.524,0,13.859,5.08,15.764,12.002
							C237.463,117.55,237.664,119.005,237.664,120.516z"/>
						<path style="fill:#CDE6F6;" d="M237.077,116.167c-1.905,6.921-8.24,12.01-15.764,12.01h-7.766v-24.012h7.766
							C228.837,104.165,235.172,109.245,237.077,116.167z"/>
					</g>
					<g>
						<path style="fill:#22A8B9;" d="M80.766,122.686c3.907,8.537,11.841,14.671,24.519,14.671c41.69,0,84.144,0,84.144,0
							c0-33.892-25.918-54.488-53.901-62.511c-9.004-2.589-18.232-3.867-26.874-3.867C83.949,70.98,71.803,103.136,80.766,122.686z"
							/>
						<path style="fill:#4FCAE8;" d="M80.766,122.686c26.625-3.063,48.282-22.421,54.761-47.84
							c-9.004-2.589-18.232-3.867-26.874-3.867C83.949,70.98,71.803,103.136,80.766,122.686z"/>
						<path style="fill:#3F6C8E;" d="M174.771,137.357c0-28.894-21.526-42.811-49.881-42.811s-36.001,42.811-2.689,42.811
							S174.771,137.357,174.771,137.357z"/>
					</g>
				</g>
			</g>
		</g>
		<g>
			<path style="fill:#FFFFFF;" d="M449.153,376.936c0,16.794-13.611,30.417-30.405,30.417H93.252
				c-16.794,0-30.405-13.624-30.405-30.417l176.278-107.197c10.367-6.304,23.382-6.304,33.749,0L449.153,376.936z"/>
			<polygon style="fill:#FAEFDC;" points="62.847,209.525 199.747,293.686 62.847,376.936 			"/>
			<polygon style="fill:#FAEFDC;" points="449.153,209.525 312.253,293.686 449.153,376.936 			"/>
		</g>
	</g>
</g>
</svg>
