<?xml version="1.0" encoding="utf-8"?>
<!-- Generator: Adobe Illustrator 16.0.0, SVG Export Plug-In . SVG Version: 6.00 Build 0)  -->
<!DOCTYPE svg PUBLIC "-//W3C//DTD SVG 1.0//EN" "http://www.w3.org/TR/2001/REC-SVG-20010904/DTD/svg10.dtd">
<svg version="1.0" id="Layer_1" xmlns="http://www.w3.org/2000/svg" xmlns:xlink="http://www.w3.org/1999/xlink" x="0px" y="0px"
	 width="100px" height="100px" viewBox="0 0 100 100" enable-background="new 0 0 100 100" xml:space="preserve">
<path fill="none" stroke="#000000" stroke-width="2" stroke-linecap="round" stroke-linejoin="round" stroke-miterlimit="10" d="
	M54.42,76.531c1.458,1.458,1.458,3.847,0,5.304l-7.071,7.072c-1.458,1.457-3.845,1.457-5.303,0c-1.458-1.459-1.459-3.844,0-5.303
	l7.071-7.073C50.576,75.072,52.961,75.072,54.42,76.531z"/>
<path fill="none" stroke="#000000" stroke-width="2" stroke-linecap="round" stroke-linejoin="round" stroke-miterlimit="10" d="
	M49.117,71.229c1.458,1.457,1.459,3.844,0,5.303l-7.071,7.073c-1.459,1.459-3.846,1.457-5.304,0c-1.458-1.459-1.458-3.846,0-5.305
	l7.072-7.071C45.272,69.77,47.659,69.771,49.117,71.229z"/>
<path fill="none" stroke="#000000" stroke-width="2" stroke-linecap="round" stroke-linejoin="round" stroke-miterlimit="10" d="
	M43.814,65.924c1.458,1.459,1.458,3.846,0,5.305L36.742,78.3c-1.458,1.459-3.845,1.459-5.303,0c-1.458-1.458-1.459-3.845,0-5.304
	l7.071-7.072C39.969,64.465,42.356,64.467,43.814,65.924z"/>
<path fill="none" stroke="#000000" stroke-width="2" stroke-linecap="round" stroke-linejoin="round" stroke-miterlimit="10" d="
	M34.975,64.156c1.458,1.459,1.458,3.846,0,5.305l-3.535,3.535c-1.459,1.459-3.846,1.459-5.303,0c-1.458-1.459-1.459-3.846,0-5.303
	l3.534-3.537C31.13,62.697,33.517,62.699,34.975,64.156z"/>
<path fill="none" stroke="#000000" stroke-width="2" stroke-linecap="round" stroke-linejoin="round" stroke-miterlimit="10" d="
	M50,86.255l2.651,2.652c1.459,1.457,3.847,1.457,5.304,0c1.457-1.459,1.457-3.846,0-5.303l-2.65-2.654L50,86.255z"/>
<path fill="none" stroke="#000000" stroke-width="2" stroke-linecap="round" stroke-linejoin="round" stroke-miterlimit="10" d="
	M50,33.222L38.51,44.713c-1.459,1.459-1.459,3.845,0,5.302c1.458,1.459,3.844,1.459,5.303,0L50,43.83l21.212,21.211l0.304-0.303
	c3.333-3.334,4.999-7.703,4.999-12.072l7.07-7.069L70.328,32.338c-1.953,1.953-4.512,2.929-7.069,2.929
	c-2.56,0-5.119-0.978-7.071-2.929c-1.459-1.459-3.846-1.457-5.303,0L50,33.222z"/>
<path fill="none" stroke="#000000" stroke-width="2" stroke-linecap="round" stroke-linejoin="round" stroke-miterlimit="10" d="
	M43.813,32.338c1.459-1.459,3.844-1.459,5.303,0L50,33.222L38.51,44.713c-1.459,1.459-1.459,3.845,0,5.302
	c1.458,1.459,3.844,1.459,5.303,0L50,43.83l21.212,21.211l2.651,2.652c1.458,1.457,1.458,3.844,0,5.303
	c-1.457,1.459-3.845,1.459-5.304,0l-7.07-7.072l7.07,7.072c1.459,1.459,1.459,3.846,0,5.304c-1.457,1.459-3.844,1.459-5.303,0
	l-7.072-7.071l7.072,7.071c1.459,1.459,1.459,3.846,0,5.305c-1.458,1.457-3.846,1.457-5.303,0l-2.814-2.816
	c0.656-1.393,0.428-3.107-0.721-4.257c-1.459-1.459-3.844-1.459-5.303,0c1.459-1.459,1.458-3.846,0-5.303
	c-1.458-1.457-3.845-1.459-5.303,0c1.458-1.459,1.458-3.846,0-5.305c-1.458-1.457-3.845-1.459-5.304,0l-3.536,3.537
	c1.458-1.459,1.458-3.846,0-5.305c-1.458-1.457-3.845-1.459-5.304,0l-0.883,0.885l-0.305-0.305
	c-3.332-3.334-4.999-7.703-4.999-12.07l-7.07-7.071l13.257-13.259c1.953,1.953,4.512,2.929,7.069,2.929
	C39.301,35.265,41.861,34.288,43.813,32.338z"/>
<polygon fill="none" stroke="#000000" stroke-width="2" stroke-linecap="round" stroke-linejoin="round" stroke-miterlimit="10" points="
	10,45.924 13.042,48.966 33.042,28.965 14.076,10 10,10 "/>
<polygon fill="none" stroke="#000000" stroke-width="2" stroke-linecap="round" stroke-linejoin="round" stroke-miterlimit="10" points="
	90,45.924 86.957,48.966 66.959,28.965 85.924,10 90,10 "/>
</svg>
